<svg width="56" height="56" viewBox="0 0 56 56" fill="none" xmlns="http://www.w3.org/2000/svg">
<path d="M23.1922 55H5.67747C3.09428 55 1 52.9057 1 50.3228V32.807C1 30.224 3.09428 28.1306 5.67747 28.1306H23.1922C25.7759 28.1306 27.8701 30.224 27.8701 32.807V50.3228C27.8701 52.9057 25.7759 55 23.1922 55Z" fill="#FDCFFE"/>
<path d="M3.72681 32.5045V41.5742" stroke="#FEFFFF" stroke-miterlimit="10" stroke-linecap="round" stroke-linejoin="round"/>
<path d="M8.48142 28.1306H23.1922C25.7759 28.1306 27.8701 30.224 27.8701 32.807V50.3228C27.8701 52.9057 25.7759 55 23.1922 55H5.67747C3.09428 55 1 52.9057 1 50.3228V39.3366" stroke="#040606" stroke-miterlimit="10" stroke-linecap="round" stroke-linejoin="round"/>
<path d="M14.18 47.5552C14.1516 47.9667 13.9317 48.2505 13.5202 48.4066C13.1229 48.5627 12.3992 48.6407 11.3492 48.6407C10.2992 48.6407 9.4194 48.5485 8.70993 48.364C8.01464 48.1654 7.66699 47.917 7.66699 47.6191C7.66699 47.2785 8.29843 45.1075 9.5613 41.1061C10.8242 37.0904 11.5478 34.7775 11.7323 34.1673C11.8033 33.9829 12.3708 33.8339 13.4351 33.7204C14.5135 33.5927 15.6628 33.5288 16.8831 33.5288C18.1176 33.5288 18.7987 33.7417 18.9264 34.1673C21.6082 43.0784 22.9492 47.6049 22.9492 47.7468C22.9492 47.8887 22.864 48.0306 22.6937 48.1725C22.2964 48.4846 21.5089 48.6407 20.3312 48.6407C17.8196 48.6407 16.5355 48.3427 16.4787 47.7468L16.3297 46.3633H14.2864L14.18 47.5552ZM15.8828 42.3193L15.5635 38.4881H15.0952L14.7334 42.3193H15.8828Z" fill="#FEFFFF"/>
<path d="M39.614 27.8693H22.0983C19.5154 27.8693 17.4211 25.7758 17.4211 23.1929V5.67721C17.4211 3.09423 19.5154 1.00002 22.0983 1.00002H39.614C42.197 1.00002 44.2912 3.09423 44.2912 5.67721V23.1929C44.2912 25.7758 42.197 27.8693 39.614 27.8693Z" fill="#13BB87"/>
<path d="M20.1475 5.37469V14.4444" stroke="#FEFFFF" stroke-miterlimit="10" stroke-linecap="round" stroke-linejoin="round"/>
<path d="M24.9025 1.00002H39.614C42.197 1.00002 44.2912 3.09423 44.2912 5.67721V23.1929C44.2912 25.7758 42.197 27.8693 39.614 27.8693H22.0983C19.5154 27.8693 17.4211 25.7758 17.4211 23.1929V12.206" stroke="#040606" stroke-miterlimit="10" stroke-linecap="round" stroke-linejoin="round"/>
<path d="M31.1752 21.5101H26.514C25.8045 21.5101 25.3291 21.4604 25.0879 21.3611C24.8467 21.2618 24.7261 21.1057 24.7261 20.8928V7.20698C24.7261 6.52588 26.7765 6.18533 30.8773 6.18533C33.2327 6.18533 34.8574 6.41236 35.7514 6.86643C36.6595 7.33468 37.2413 7.93064 37.4967 8.65431C37.6386 9.08 37.7095 9.57664 37.7095 10.1442C37.7095 11.251 37.518 12.0811 37.1348 12.6345C36.7659 13.1879 36.3615 13.5001 35.9216 13.571C36.5886 13.7129 37.1419 14.0393 37.5818 14.5501C38.0217 15.0609 38.2416 15.9265 38.2416 17.1468C38.2416 18.5657 37.8089 19.6158 36.9433 20.2969C36.1912 20.8928 35.0419 21.2689 33.4952 21.4249C32.8425 21.4817 32.0692 21.5101 31.1752 21.5101ZM31.1965 12.2301C31.9202 12.2301 32.282 11.7476 32.282 10.7828C32.282 10.3003 32.1827 9.94557 31.984 9.71853C31.7996 9.47731 31.5867 9.3567 31.3455 9.3567H30.6644V12.2301H31.1965ZM30.6644 18.3387H31.1965C31.9202 18.3387 32.282 17.8563 32.282 16.8914C32.282 16.4089 32.1827 16.0542 31.984 15.8272C31.7996 15.5859 31.5867 15.4653 31.3455 15.4653H30.6644V18.3387Z" fill="#FEFFFF"/>
<path d="M50.3226 55H32.8075C30.2239 55 28.1304 52.9065 28.1304 50.3236V32.8078C28.1304 30.2249 30.2239 28.1306 32.8075 28.1306H50.3226C52.9055 28.1306 54.9997 30.2249 54.9997 32.8078V50.3236C54.9997 52.9065 52.9055 55 50.3226 55Z" fill="#FC715A"/>
<path d="M30.8569 32.5054V41.575" stroke="#FEFFFF" stroke-miterlimit="10" stroke-linecap="round" stroke-linejoin="round"/>
<path d="M35.611 28.1306H50.3226C52.9055 28.1306 54.9997 30.2249 54.9997 32.8078V50.3236C54.9997 52.9065 52.9055 55 50.3226 55H32.8075C30.2239 55 28.1304 52.9065 28.1304 50.3236V39.3366" stroke="#040606" stroke-miterlimit="10" stroke-linecap="round" stroke-linejoin="round"/>
<path d="M46.0992 48.4918C45.5316 48.6195 44.9499 48.7046 44.3539 48.7472C43.7721 48.8039 43.1974 48.8323 42.6299 48.8323C42.0765 48.8323 41.6437 48.8181 41.3315 48.7898C41.0335 48.7614 40.6362 48.6904 40.1396 48.5769C39.6429 48.4634 39.1889 48.3073 38.7774 48.1087C38.3659 47.91 37.926 47.6191 37.4578 47.236C37.0037 46.8529 36.6206 46.3988 36.3084 45.8738C35.5847 44.6535 35.2229 43.0784 35.2229 41.1487C35.2229 39.8574 35.4216 38.7151 35.8189 37.7219C36.2304 36.7286 36.7199 35.9624 37.2875 35.4232C37.8692 34.884 38.5291 34.4512 39.2669 34.1248C40.4588 33.5856 41.6579 33.316 42.864 33.316C44.5951 33.316 45.8367 33.4579 46.5887 33.7417C46.9293 33.8694 47.2344 34.0681 47.504 34.3377C47.7736 34.6073 47.9084 34.9975 47.9084 35.5083C47.9084 36.0191 47.7807 36.6648 47.5253 37.4452C47.284 38.2256 46.9293 38.6158 46.461 38.6158C46.3191 38.6158 45.7941 38.5023 44.886 38.2753C43.9779 38.0482 43.3606 37.9347 43.0343 37.9347C42.5376 37.9347 42.1119 38.2114 41.7572 38.7648C41.4166 39.3182 41.2464 40.1057 41.2464 41.1274C41.2464 42.149 41.3954 42.9436 41.6933 43.5112C42.0055 44.0788 42.4099 44.3626 42.9065 44.3626C43.2613 44.3626 43.8998 44.2207 44.8221 43.9369C45.7587 43.6389 46.3049 43.4899 46.461 43.4899C46.9009 43.4899 47.2415 43.8943 47.4827 44.7032C47.7381 45.512 47.8658 46.1647 47.8658 46.6613C47.8658 47.158 47.7097 47.5553 47.3976 47.8532C47.0996 48.137 46.6668 48.3499 46.0992 48.4918Z" fill="#FEFFFF"/>
</svg>
