<svg width="171" height="771" viewBox="0 0 171 771" fill="none" xmlns="http://www.w3.org/2000/svg">
<path d="M200.767 636.4C200.767 636.4 246.511 669.5 253.031 697.234L269.219 713.737L240.912 727.6L246.017 697.234C246.017 697.234 227.492 649.737 195.431 640.38C163.373 631.022 200.767 636.4 200.767 636.4Z" fill="#B4A6EE"/>
<path d="M111.734 61.5305C111.734 61.5305 109.212 1.07742 124.636 0.0126299C140.06 -1.05216 124.636 65.564 124.636 65.564L111.734 61.5305Z" fill="#E3DFF7"/>
<path d="M131.452 18.7956C131.72 7.96679 130.166 -0.365812 124.636 0.0149723C119.429 0.374602 116.272 7.5108 114.369 16.7977L131.452 18.7956Z" fill="#B4A6EE"/>
<path d="M137.282 64.7012C137.282 64.7012 134.76 4.24817 150.184 3.18338C165.608 2.1186 150.184 68.7347 150.184 68.7347L137.282 64.7012Z" fill="#E3DFF7"/>
<path d="M157 21.9641C157.268 11.1352 155.715 2.80264 150.184 3.18343C144.977 3.54306 141.821 10.6792 139.917 19.9662L157 21.9641Z" fill="#B4A6EE"/>
<path d="M49.0434 780.884C49.0434 780.884 60.3071 782.353 62.3896 761.464C64.4746 740.575 67.3821 702.92 80.0186 703.343C92.655 703.768 94.7141 728.092 94.747 748.276C94.7799 768.459 99.2459 784.699 116.153 780.139C133.06 775.579 121.9 704.744 135.181 701.559C148.461 698.374 141.026 778.381 157.419 782.57C173.809 786.758 169.573 727.097 171.943 710.747C174.31 694.397 190.665 698.962 191.187 740.42C191.708 781.879 207.276 784.73 212.832 779.15C225.452 766.476 226.501 679.471 204.133 634.743C181.766 590.015 153.724 603.331 152.135 566.578C150.546 529.825 152.629 96.3676 152.629 96.3676C152.629 96.3676 183.38 112.838 200.965 99.9146C218.547 86.9914 190.216 57.9624 155.421 64.0268C155.421 64.0268 89.195 45.413 46.7563 60.4869C4.31529 75.5585 -13.0809 98.8263 10.7792 117.017C34.637 135.208 90.3326 109.791 90.3326 109.791C90.3326 109.791 53.0158 396.689 47.4662 465.811C41.9166 534.933 38.0288 677.518 34.8415 722.986C31.6519 768.459 37.8549 780.884 49.0434 780.884Z" fill="#E3DFF7"/>
<mask id="mask0_41_1363" style="mask-type:luminance" maskUnits="userSpaceOnUse" x="91" y="194" width="109" height="451">
<path d="M199.159 625.879C177.814 591.721 153.604 600.653 152.133 566.58C151.033 541.107 151.695 325.064 152.205 194.854H91.8064V644.888H199.159V625.879Z" fill="white"/>
</mask>
<g mask="url(#mask0_41_1363)">
<path d="M115.154 559.505C122.702 559.505 128.82 553.387 128.82 545.839C128.82 538.292 122.702 532.173 115.154 532.173C107.607 532.173 101.488 538.292 101.488 545.839C101.488 553.387 107.607 559.505 115.154 559.505Z" fill="#B4A6EE"/>
<path d="M160.962 501.3C167.944 494.318 167.944 482.998 160.962 476.017C153.98 469.035 142.661 469.035 135.679 476.017C128.697 482.998 128.697 494.318 135.679 501.3C142.661 508.282 153.98 508.282 160.962 501.3Z" fill="#B4A6EE"/>
<path d="M112.663 500.947C112.663 504.033 110.162 506.534 107.075 506.534C103.989 506.534 101.488 504.033 101.488 500.947C101.488 497.86 103.989 495.359 107.075 495.359C110.162 495.359 112.663 497.86 112.663 500.947Z" fill="#B4A6EE"/>
<path d="M144.061 528.036C144.061 530.321 142.208 532.173 139.924 532.173C137.639 532.173 135.787 530.321 135.787 528.036C135.787 525.752 137.639 523.899 139.924 523.899C142.208 523.899 144.061 525.752 144.061 528.036Z" fill="#B4A6EE"/>
<path d="M166.243 619.347C178.494 619.347 188.425 609.416 188.425 597.165C188.425 584.914 178.494 574.983 166.243 574.983C153.992 574.983 144.061 584.914 144.061 597.165C144.061 609.416 153.992 619.347 166.243 619.347Z" fill="#B4A6EE"/>
<path d="M115.154 595.522C115.154 599.297 112.094 602.355 108.321 602.355C104.546 602.355 101.488 599.295 101.488 595.522C101.488 591.749 104.549 588.689 108.321 588.689C112.096 588.689 115.154 591.749 115.154 595.522Z" fill="#B4A6EE"/>
<path d="M134.821 640.866C138.135 640.866 140.822 638.179 140.822 634.865C140.822 631.551 138.135 628.864 134.821 628.864C131.506 628.864 128.82 631.551 128.82 634.865C128.82 638.179 131.506 640.866 134.821 640.866Z" fill="#B4A6EE"/>
<path d="M134.226 451.698C134.226 456.966 129.958 461.234 124.69 461.234C119.422 461.234 115.154 456.966 115.154 451.698C115.154 446.431 119.422 442.162 124.69 442.162C129.958 442.162 134.226 446.433 134.226 451.698Z" fill="#B4A6EE"/>
<path d="M130.404 397.474C130.966 403.181 126.796 408.261 121.089 408.823C115.382 409.384 110.302 405.215 109.741 399.507C109.179 393.8 113.349 388.721 119.056 388.157C124.76 387.597 129.842 391.767 130.404 397.474Z" fill="#B4A6EE"/>
<path d="M160.611 431.101C160.611 437.957 155.054 443.514 148.198 443.514C141.341 443.514 135.785 437.957 135.785 431.101C135.785 424.244 141.341 418.688 148.198 418.688C155.054 418.688 160.611 424.244 160.611 431.101Z" fill="#B4A6EE"/>
<path d="M166.325 385.289C166.325 392.58 160.416 398.49 153.124 398.49C145.833 398.49 139.924 392.578 139.924 385.289C139.924 377.998 145.833 372.086 153.124 372.086C160.416 372.088 166.325 377.998 166.325 385.289Z" fill="#B4A6EE"/>
<path d="M138.57 345.307C138.57 347.998 136.388 350.181 133.697 350.181C131.006 350.181 128.824 348 128.824 345.307C128.824 342.615 131.006 340.434 133.697 340.434C136.386 340.432 138.57 342.615 138.57 345.307Z" fill="#B4A6EE"/>
<path d="M164.4 308.85C164.4 315.361 159.121 320.638 152.61 320.638C146.099 320.638 140.822 315.361 140.822 308.85C140.822 302.339 146.099 297.062 152.61 297.062C159.121 297.062 164.4 302.339 164.4 308.85Z" fill="#B4A6EE"/>
<path d="M125.868 297.06C129.608 297.06 132.639 294.028 132.639 290.288C132.639 286.548 129.608 283.516 125.868 283.516C122.128 283.516 119.096 286.548 119.096 290.288C119.096 294.028 122.128 297.06 125.868 297.06Z" fill="#B4A6EE"/>
<path d="M155.719 255.218C163.947 255.218 170.617 248.548 170.617 240.321C170.617 232.093 163.947 225.423 155.719 225.423C147.492 225.423 140.822 232.093 140.822 240.321C140.822 248.548 147.492 255.218 155.719 255.218Z" fill="#B4A6EE"/>
</g>
<path d="M48.2206 122.454C54.0146 93.3166 47.2663 75.2082 37.6245 64.0267C1.94825 79.0372 -11.2899 100.194 10.7744 117.017C20.1248 124.144 34.3596 124.564 48.2206 122.454Z" fill="#B4A6EE"/>
<path d="M123.98 83.4444C123.98 87.0618 121.047 89.9953 117.429 89.9953C113.812 89.9953 110.879 87.0618 110.879 83.4444C110.879 79.8269 113.812 76.8935 117.429 76.8935C121.047 76.8935 123.98 79.8269 123.98 83.4444Z" fill="#9281FF"/>
<path d="M7.50066 99.7804C9.15322 99.7804 10.4929 98.4408 10.4929 96.7882C10.4929 95.1357 9.15322 93.796 7.50066 93.796C5.84811 93.796 4.50842 95.1357 4.50842 96.7882C4.50842 98.4408 5.84811 99.7804 7.50066 99.7804Z" fill="#9281FF"/>
<path d="M21.6742 93.3777C21.6742 95.0301 20.3344 96.3699 18.682 96.3699C17.0296 96.3699 15.6898 95.0301 15.6898 93.3777C15.6898 91.7253 17.0296 90.3855 18.682 90.3855C20.3344 90.3855 21.6742 91.7253 21.6742 93.3777Z" fill="#9281FF"/>
<path d="M16.3175 120.251C16.3175 120.251 30.5711 118.735 34.8396 102.862" stroke="#9281FF" stroke-miterlimit="10" stroke-linecap="round" stroke-linejoin="round"/>
<path d="M156.911 87.2968V72.0796C156.911 72.0796 188.723 65.4252 191.208 79.6882C193.692 93.9488 176.792 94.5599 156.911 87.2968Z" fill="#B4A6EE"/>
<path d="M94.7777 31.8176C90.3399 37.5058 93.8257 42.5571 98.9028 46.365C94.0584 44.9123 89.3573 44.9406 87.3218 49.2138C82.3504 59.6525 109.081 71.3205 136.723 59.77C136.723 59.77 107.68 15.277 94.7777 31.8176Z" fill="#B4A6EE"/>
<path d="M85.7302 142.367L120.184 143.789" stroke="#9281FF" stroke-miterlimit="10" stroke-linecap="round" stroke-linejoin="round"/>
<path d="M77.8485 202.308H109.689" stroke="#9281FF" stroke-miterlimit="10" stroke-linecap="round" stroke-linejoin="round"/>
<path d="M70.2469 263.551L109.722 267.173" stroke="#9281FF" stroke-miterlimit="10" stroke-linecap="round" stroke-linejoin="round"/>
<path d="M59.1552 358.552H92.5395" stroke="#9281FF" stroke-miterlimit="10" stroke-linecap="round" stroke-linejoin="round"/>
<path d="M47.4634 465.811L85.9038 465.508" stroke="#9281FF" stroke-miterlimit="10" stroke-linecap="round" stroke-linejoin="round"/>
<path d="M43.428 532.173H85.7303" stroke="#9281FF" stroke-miterlimit="10" stroke-linecap="round" stroke-linejoin="round"/>
<path d="M41.3124 594.258H81.6896" stroke="#9281FF" stroke-miterlimit="10" stroke-linecap="round" stroke-linejoin="round"/>
<path d="M38.186 654.092L79.1298 657.515" stroke="#9281FF" stroke-miterlimit="10" stroke-linecap="round" stroke-linejoin="round"/>
<path d="M157.416 782.567C166.316 784.84 169.131 768.288 170.227 750.067H146.195C147.974 766.344 150.687 780.849 157.416 782.567Z" fill="#B4A6EE"/>
<path d="M49.0436 780.884C49.0436 780.884 60.3049 782.353 62.3898 761.464C62.733 758.037 63.0973 754.154 63.5228 750.066H34.1036C34.8887 773.644 40.5136 780.884 49.0436 780.884Z" fill="#B4A6EE"/>
<path d="M116.151 780.139C123.125 778.259 125.32 765.101 126.427 750.067H94.7727C95.0712 769.402 99.7511 784.563 116.151 780.139Z" fill="#B4A6EE"/>
</svg>
