<svg width="14" height="14" viewBox="0 0 14 14" fill="none" xmlns="http://www.w3.org/2000/svg">
<path d="M5.5415 11.5208C5.65754 11.5208 5.76882 11.4748 5.85086 11.3927C5.93291 11.3107 5.979 11.1994 5.979 11.0833C5.979 10.9673 5.93291 10.856 5.85086 10.774C5.76882 10.6919 5.65754 10.6458 5.5415 10.6458V11.5208ZM6.4165 2.91668V3.35418C6.50298 3.3541 6.58749 3.3284 6.65936 3.28032C6.73124 3.23225 6.78726 3.16395 6.82034 3.08405C6.85342 3.00416 6.86208 2.91625 6.84523 2.83143C6.82838 2.74662 6.78678 2.6687 6.72567 2.60751L6.4165 2.91668ZM5.559 1.44085C5.47607 1.36357 5.36638 1.32149 5.25303 1.32349C5.13969 1.32549 5.03155 1.37141 4.95139 1.45157C4.87123 1.53172 4.82532 1.63987 4.82332 1.75321C4.82132 1.86655 4.86339 1.97624 4.94067 2.05918L5.559 1.44085ZM5.5415 10.6458H5.24984V11.5208H5.5415V10.6458ZM5.24984 3.35418H6.4165V2.47918H5.24984V3.35418ZM6.72567 2.60751L5.559 1.44085L4.94067 2.05918L6.10734 3.22585L6.72567 2.60751ZM0.729004 7.00001C0.729004 8.19901 1.2053 9.3489 2.05313 10.1967C2.90095 11.0445 4.05084 11.5208 5.24984 11.5208V10.6458C4.2829 10.6458 3.35557 10.2617 2.67184 9.57801C1.98812 8.89428 1.604 7.96695 1.604 7.00001H0.729004ZM1.604 7.00001C1.604 6.03308 1.98812 5.10574 2.67184 4.42202C3.35557 3.73829 4.2829 3.35418 5.24984 3.35418V2.47918C4.05084 2.47918 2.90095 2.95548 2.05313 3.8033C1.2053 4.65112 0.729004 5.80101 0.729004 7.00001H1.604ZM7.58317 11.0833V10.6458C7.4967 10.6459 7.41219 10.6716 7.34031 10.7197C7.26844 10.7678 7.21242 10.8361 7.17934 10.916C7.14626 10.9959 7.13759 11.0838 7.15444 11.1686C7.17129 11.2534 7.2129 11.3313 7.274 11.3925L7.58317 11.0833ZM8.44067 12.5592C8.48072 12.6022 8.52902 12.6366 8.58269 12.6606C8.63636 12.6845 8.69429 12.6973 8.75303 12.6984C8.81178 12.6994 8.87013 12.6886 8.9246 12.6666C8.97908 12.6446 9.02857 12.6118 9.07011 12.5703C9.11165 12.5287 9.14441 12.4793 9.16641 12.4248C9.18841 12.3703 9.19922 12.312 9.19818 12.2532C9.19715 12.1945 9.18429 12.1365 9.16038 12.0829C9.13647 12.0292 9.10199 11.9809 9.059 11.9408L8.44067 12.5592ZM8.45817 2.47918C8.34214 2.47918 8.23086 2.52527 8.14881 2.60732C8.06676 2.68937 8.02067 2.80065 8.02067 2.91668C8.02067 3.03271 8.06676 3.14399 8.14881 3.22604C8.23086 3.30809 8.34214 3.35418 8.45817 3.35418V2.47918ZM8.74984 10.6458H7.58317V11.5208H8.74984V10.6458ZM7.274 11.3925L8.44067 12.5592L9.059 11.9408L7.89234 10.7742L7.274 11.3925ZM8.45817 3.35418H8.74984V2.47918H8.45817V3.35418ZM12.3957 7.00001C12.3957 7.96695 12.0116 8.89428 11.3278 9.57801C10.6441 10.2617 9.71677 10.6458 8.74984 10.6458V11.5208C9.94884 11.5208 11.0987 11.0445 11.9466 10.1967C12.7944 9.3489 13.2707 8.19901 13.2707 7.00001H12.3957ZM13.2707 7.00001C13.2707 5.80101 12.7944 4.65112 11.9466 3.8033C11.0987 2.95548 9.94884 2.47918 8.74984 2.47918V3.35418C9.71677 3.35418 10.6441 3.73829 11.3278 4.42202C12.0116 5.10574 12.3957 6.03308 12.3957 7.00001H13.2707Z" fill="#272727"/>
</svg>
