<svg width="20" height="20" viewBox="0 0 20 20" fill="none" xmlns="http://www.w3.org/2000/svg">
<path d="M1.66669 9.99999C1.66669 6.85749 1.66669 5.28583 2.64335 4.30999C3.62002 3.33416 5.19085 3.33333 8.33335 3.33333H11.6667C14.8092 3.33333 16.3809 3.33333 17.3567 4.30999C18.3325 5.28666 18.3334 6.85749 18.3334 9.99999C18.3334 13.1425 18.3334 14.7142 17.3567 15.69C16.38 16.6658 14.8092 16.6667 11.6667 16.6667H8.33335C5.19085 16.6667 3.61919 16.6667 2.64335 15.69C1.66752 14.7133 1.66669 13.1425 1.66669 9.99999Z" stroke="#C4C4C4" stroke-width="1.5"/>
<path d="M5 6.66666L6.79917 8.16666C8.33 9.44166 9.095 10.0792 10 10.0792C10.905 10.0792 11.6708 9.44166 13.2008 8.16582L15 6.66666" stroke="#C4C4C4" stroke-width="1.5" stroke-linecap="round"/>
</svg>
