<svg width="390" height="437" viewBox="0 0 390 437" fill="none" xmlns="http://www.w3.org/2000/svg">
<path d="M95.6219 36.5499C98.3524 21.2649 86.7589 6.88749 69.7271 4.437C52.6952 1.98651 36.6746 12.3909 33.9441 27.6759C31.2135 42.9609 42.807 57.3383 59.8389 59.7888C76.8707 62.2393 92.8913 51.8349 95.6219 36.5499Z" fill="#F1CCF7"/>
<path d="M385.857 96.9852C393.773 96.9852 400.191 91.2262 400.191 84.1221C400.191 77.018 393.773 71.259 385.857 71.259C377.941 71.259 371.524 77.018 371.524 84.1221C371.524 91.2262 377.941 96.9852 385.857 96.9852Z" fill="#F1CCF7"/>
<path d="M395.512 258.42C402.409 258.42 408 253.403 408 247.213C408 241.024 402.409 236.006 395.512 236.006C388.616 236.006 383.025 241.024 383.025 247.213C383.025 253.403 388.616 258.42 395.512 258.42Z" fill="#F1CCF7"/>
<path d="M393.872 140.767C388.523 119.55 374.241 98.0353 350.972 91.9404C339.639 88.9717 327.504 90.0056 315.863 91.7682C302.538 93.7858 289.387 96.725 276.564 100.553C266.303 103.615 255.728 107.302 245.013 105.999C232.217 104.444 221.918 96.1382 212.444 88.2651C199.531 77.5349 186.222 66.7094 170.133 60.3085C144.042 49.9278 112.457 52.7695 87.995 65.9651C63.5335 79.1608 46.2621 101.957 39.3751 126.814C32.4881 151.67 35.5828 178.343 45.8907 202.228C57.6092 229.381 79.1744 253.393 106.842 268.334L270.5 317C296 351 373 337 364.782 248.044C391.363 218.368 403.233 177.902 393.872 140.767Z" fill="#F1CCF7"/>
<path d="M315.076 368.158C310.141 368.397 305.946 364.588 305.707 359.651L299.327 227.38C299.088 222.445 302.896 218.249 307.833 218.011C312.769 217.772 316.964 221.58 317.203 226.517L323.583 358.789C323.822 363.726 320.012 367.919 315.076 368.158Z" fill="#9281FF"/>
<path d="M300.677 255.363L318.553 254.502" stroke="black" stroke-width="0.75" stroke-miterlimit="10" stroke-linecap="round" stroke-linejoin="round"/>
<path d="M301.788 221.573L303.411 255.232" stroke="black" stroke-width="0.75" stroke-miterlimit="10" stroke-linecap="round" stroke-linejoin="round"/>
<path d="M307.228 218.438L308.99 254.962" stroke="black" stroke-width="0.75" stroke-miterlimit="10" stroke-linecap="round" stroke-linejoin="round"/>
<path d="M312.879 219.691L314.568 254.694" stroke="black" stroke-width="0.75" stroke-miterlimit="10" stroke-linecap="round" stroke-linejoin="round"/>
<path d="M309.009 371.285C304.188 372.371 299.399 369.342 298.314 364.521L269.22 235.332C268.135 230.51 271.164 225.722 275.985 224.636C280.806 223.551 285.594 226.58 286.68 231.401L315.773 360.59C316.859 365.411 313.83 370.199 309.009 371.285Z" fill="#B4A6EE"/>
<path d="M275.376 262.663L292.836 258.732" stroke="black" stroke-width="0.75" stroke-miterlimit="10" stroke-linecap="round" stroke-linejoin="round"/>
<path d="M270.643 229.188L278.047 262.062" stroke="black" stroke-width="0.75" stroke-miterlimit="10" stroke-linecap="round" stroke-linejoin="round"/>
<path d="M275.461 225.16L283.496 260.835" stroke="black" stroke-width="0.75" stroke-miterlimit="10" stroke-linecap="round" stroke-linejoin="round"/>
<path d="M281.245 225.421L288.944 259.609" stroke="black" stroke-width="0.75" stroke-miterlimit="10" stroke-linecap="round" stroke-linejoin="round"/>
<path d="M330.093 340.705L322.802 340.104C319.17 339.805 316.468 336.617 316.767 332.985L325.151 231.224C325.45 227.592 328.636 224.891 332.268 225.19L339.559 225.791C343.191 226.09 345.893 229.278 345.594 232.91L337.21 334.67C336.911 338.302 333.725 341.004 330.093 340.705Z" fill="#F7D202"/>
<path d="M337.423 237.735L345.145 238.371" stroke="black" stroke-width="0.75" stroke-miterlimit="10" stroke-linecap="round" stroke-linejoin="round"/>
<path d="M336.603 247.667L344.325 248.304" stroke="black" stroke-width="0.75" stroke-miterlimit="10" stroke-linecap="round" stroke-linejoin="round"/>
<path d="M335.786 257.6L343.508 258.236" stroke="black" stroke-width="0.75" stroke-miterlimit="10" stroke-linecap="round" stroke-linejoin="round"/>
<path d="M334.966 267.533L342.69 268.169" stroke="black" stroke-width="0.75" stroke-miterlimit="10" stroke-linecap="round" stroke-linejoin="round"/>
<path d="M334.149 277.466L341.871 278.102" stroke="black" stroke-width="0.75" stroke-miterlimit="10" stroke-linecap="round" stroke-linejoin="round"/>
<path d="M333.329 287.399L341.053 288.035" stroke="black" stroke-width="0.75" stroke-miterlimit="10" stroke-linecap="round" stroke-linejoin="round"/>
<path d="M332.512 297.332L340.234 297.968" stroke="black" stroke-width="0.75" stroke-miterlimit="10" stroke-linecap="round" stroke-linejoin="round"/>
<path d="M351.382 274.907C351.382 274.907 345.805 267.63 346.97 257.545C348.135 247.46 364.466 238.779 364.466 238.779C364.466 238.779 364.438 247.344 364.538 251.705C364.538 251.705 365.247 245.757 365.565 241.423C365.565 241.423 378.444 261.735 358.523 276.228L351.382 274.907Z" fill="black"/>
<path d="M372.228 253.107C372.228 253.107 372.627 268.823 358.524 276.228" stroke="black" stroke-width="0.75" stroke-miterlimit="10" stroke-linecap="round" stroke-linejoin="round"/>
<path d="M356.63 299.126L359.71 278.676C359.971 276.94 359.128 275.369 357.733 274.992L354.863 274.214L351.994 273.436C350.599 273.058 349.077 273.99 348.427 275.62L340.768 294.83C340.712 294.968 340.666 295.108 340.624 295.252C339.817 298.108 331.466 328.14 333.495 343.186C333.87 345.972 336.778 346.761 338.51 344.543C347.855 332.577 355.8 302.435 356.542 299.562C356.578 299.418 356.607 299.275 356.63 299.126Z" fill="#F4CAFC"/>
<path d="M356.704 298.63L359.71 278.676C359.971 276.94 359.128 275.369 357.733 274.992L354.863 274.214L351.994 273.436C350.599 273.058 349.077 273.99 348.427 275.62L340.954 294.365L356.704 298.63Z" fill="#B4A6EE"/>
<path d="M340.766 294.83L356.63 299.126" stroke="black" stroke-width="0.75" stroke-miterlimit="10" stroke-linecap="round" stroke-linejoin="round"/>
<path d="M349.254 391.879H286.101C283.197 391.879 280.841 389.524 280.841 386.618V323.465C280.841 320.56 283.195 318.205 286.101 318.205H349.254C352.158 318.205 354.514 320.56 354.514 323.465V386.618C354.514 389.524 352.158 391.879 349.254 391.879Z" fill="#F4A8FF"/>
<path d="M286.101 318.205H349.254" stroke="black" stroke-width="0.75" stroke-miterlimit="10" stroke-linecap="round" stroke-linejoin="round"/>
<path d="M283.961 333.775H349.254" stroke="black" stroke-width="0.75" stroke-miterlimit="10" stroke-linecap="round" stroke-linejoin="round"/>
<path d="M292.388 391.879V333.775" stroke="black" stroke-width="0.75" stroke-miterlimit="10" stroke-linecap="round" stroke-linejoin="round"/>
<path d="M308.91 391.327V333.775" stroke="black" stroke-width="0.75" stroke-miterlimit="10" stroke-linecap="round" stroke-linejoin="round"/>
<path d="M325.435 391.977V333.775" stroke="black" stroke-width="0.75" stroke-miterlimit="10" stroke-linecap="round" stroke-linejoin="round"/>
<path d="M341.957 391.977V334.053" stroke="black" stroke-width="0.75" stroke-miterlimit="10" stroke-linecap="round" stroke-linejoin="round"/>
<path d="M230.448 232.46H130.359V375.848H230.448V232.46Z" fill="#E3DFF7" stroke="black" stroke-width="0.75" stroke-miterlimit="10" stroke-linecap="round" stroke-linejoin="round"/>
<path d="M228.055 355.307C228.055 355.307 228.007 379.998 237.711 388.028C247.416 396.058 275.575 405.517 287.446 406.524C299.318 407.531 304.67 398.064 303.58 388.207C302.49 378.349 267.507 356.063 267.507 356.063L228.055 355.307Z" fill="#9281FF"/>
<path d="M303.581 388.207C303.407 386.637 302.368 384.75 300.754 382.69C283.327 384.619 277.136 395.976 274.937 404.048C279.838 405.359 284.24 406.253 287.448 406.525C299.319 407.532 304.671 398.065 303.581 388.207Z" fill="black"/>
<path d="M245.632 373.591C242.46 366.446 234.485 363.458 228.422 362.206C229.144 370.13 231.296 382.72 237.713 388.029C239.228 389.283 241.194 390.572 243.477 391.857C246.443 385.911 248.097 379.144 245.632 373.591Z" fill="black"/>
<path d="M228.055 355.307C228.055 355.307 228.007 379.998 237.711 388.028C247.416 396.058 275.575 405.517 287.446 406.524C299.318 407.531 304.67 398.064 303.58 388.207C303.266 385.363 300.131 381.485 295.828 377.406" stroke="black" stroke-width="0.75" stroke-miterlimit="10" stroke-linecap="round" stroke-linejoin="round"/>
<path d="M239.579 385.261C239.579 385.261 239.531 409.952 249.235 417.982C258.94 426.012 287.099 435.471 298.971 436.478C310.843 437.485 316.195 428.018 315.105 418.161C314.015 408.303 279.032 386.017 279.032 386.017L239.579 385.261Z" fill="#9281FF"/>
<path d="M315.105 418.161C314.931 416.591 313.892 414.704 312.278 412.644C294.851 414.573 288.66 425.93 286.461 434.002C291.362 435.313 295.764 436.207 298.972 436.479C310.843 437.486 316.195 428.019 315.105 418.161Z" fill="black"/>
<path d="M257.156 403.545C253.984 396.4 246.009 393.412 239.946 392.16C240.668 400.084 242.82 412.674 249.237 417.983C250.752 419.237 252.718 420.525 255.001 421.811C257.967 415.865 259.621 409.098 257.156 403.545Z" fill="black"/>
<path d="M239.579 385.261C239.579 385.261 239.531 409.952 249.235 417.982C258.94 426.012 287.099 435.471 298.971 436.478C310.843 437.485 316.195 428.018 315.105 418.161C314.79 415.317 311.655 411.439 307.353 407.36" stroke="black" stroke-width="0.75" stroke-miterlimit="10" stroke-linecap="round" stroke-linejoin="round"/>
<path d="M243.982 209.532C243.982 209.532 265.725 215.763 270.098 220.838C274.471 225.913 285.25 228.723 292.827 251.949C300.404 275.176 279.762 376.838 279.762 376.838H238.592L236.889 269.373L193.574 230.308L243.982 209.532Z" fill="#FEFFFF"/>
<path d="M269.363 278.968C274.663 273.668 274.663 265.076 269.363 259.777C264.064 254.478 255.472 254.478 250.172 259.777C244.873 265.076 244.873 273.668 250.172 278.968C255.472 284.267 264.064 284.267 269.363 278.968Z" fill="#F7D202"/>
<path d="M277.586 227.107C276.993 228.632 276.655 230.285 276.655 232.02C276.655 239.514 282.731 245.59 290.225 245.59C290.306 245.59 290.385 245.579 290.465 245.578C286.33 235.713 281.615 230.553 277.586 227.107Z" fill="#F7D202"/>
<path d="M247.922 223.367C247.922 217.949 244.739 213.287 240.149 211.111L221.603 218.755C221.081 220.197 220.782 221.745 220.782 223.367C220.782 230.862 226.858 236.937 234.352 236.937C241.846 236.937 247.922 230.862 247.922 223.367Z" fill="#F7D202"/>
<path d="M288.506 292.298C281.011 292.298 274.936 298.374 274.936 305.868C274.936 313.363 281.012 319.438 288.506 319.438C288.902 319.438 289.292 319.412 289.68 319.379C290.952 310.568 292.107 301.579 292.968 293.064C291.569 292.576 290.072 292.298 288.506 292.298Z" fill="#F7D202"/>
<path d="M285.244 347.243C284.25 347.011 283.22 346.876 282.156 346.876C274.661 346.876 268.586 352.952 268.586 360.446C268.586 367.326 273.711 372.996 280.349 373.882C281.263 369.227 283.143 359.433 285.244 347.243Z" fill="#F7D202"/>
<path d="M243.982 209.532C243.982 209.532 265.725 215.763 270.098 220.838C274.471 225.913 285.25 228.723 292.827 251.949C300.404 275.176 279.762 376.838 279.762 376.838H238.592L236.889 269.373L193.574 230.308L243.982 209.532Z" stroke="black" stroke-width="0.75" stroke-miterlimit="10" stroke-linecap="round" stroke-linejoin="round"/>
<path d="M259.772 277.962C246.342 245.002 210.55 232.019 210.55 232.019L201.585 226.235C201.585 226.235 165.777 218.722 157.359 246.375C148.942 274.027 206.336 300.033 206.336 300.033C208.188 307.852 227.06 401.509 227.06 401.509L291.988 392.308C291.988 392.308 273.202 310.923 259.772 277.962Z" fill="#FEFFFF"/>
<path d="M262.74 371.001C268.039 365.701 268.039 357.109 262.74 351.81C257.44 346.511 248.848 346.51 243.549 351.81C238.249 357.109 238.249 365.701 243.549 371.001C248.848 376.3 257.44 376.3 262.74 371.001Z" fill="#F7D202"/>
<path d="M250.918 296.424C252.65 289.133 248.143 281.818 240.851 280.086C233.56 278.354 226.245 282.861 224.513 290.152C222.781 297.444 227.288 304.759 234.579 306.491C241.871 308.223 249.186 303.716 250.918 296.424Z" fill="#F7D202"/>
<path d="M188.887 254.9C195.821 252.056 199.137 244.129 196.293 237.195C193.448 230.261 185.522 226.946 178.588 229.79C171.654 232.634 168.338 240.561 171.183 247.495C174.027 254.428 181.954 257.744 188.887 254.9Z" fill="#F7D202"/>
<path d="M241.661 252C234.022 244.732 225.965 239.635 219.957 236.411C217.448 238.873 215.888 242.299 215.888 246.092C215.888 253.587 221.963 259.662 229.458 259.662C234.833 259.662 239.463 256.531 241.661 252Z" fill="#F7D202"/>
<path d="M275.862 340.723C276.956 340.723 278.013 340.58 279.032 340.335C276.74 331.708 274.285 322.78 271.787 314.207C266.284 315.938 262.292 321.078 262.292 327.153C262.292 334.647 268.368 340.723 275.862 340.723Z" fill="#F7D202"/>
<path d="M191.998 266.887C184.503 266.887 178.428 272.963 178.428 280.457C178.428 281.568 178.576 282.641 178.828 283.674C184.193 287.68 189.719 291.123 194.399 293.802C200.747 292.667 205.568 287.13 205.568 280.457C205.568 272.963 199.492 266.887 191.998 266.887Z" fill="#F7D202"/>
<path d="M233.295 343.679C233.295 336.184 227.219 330.109 219.725 330.109C217.26 330.109 214.955 330.776 212.963 331.925C214.599 339.942 216.371 348.663 218.091 357.141C218.628 357.206 219.171 357.249 219.725 357.249C227.219 357.249 233.295 351.174 233.295 343.679Z" fill="#F7D202"/>
<path d="M287.049 371.728C279.897 372.111 274.212 378.014 274.212 385.261C274.212 388.753 275.543 391.927 277.71 394.332L291.988 392.309C291.988 392.309 290.081 384.046 287.049 371.728Z" fill="#F7D202"/>
<path d="M236.241 393.872C236.241 386.414 230.224 380.367 222.781 380.308C225.29 392.72 227.061 401.51 227.061 401.51L234.537 400.451C235.619 398.501 236.241 396.26 236.241 393.872Z" fill="#F7D202"/>
<path d="M210.55 232.019C210.55 232.019 246.342 245.002 259.772 277.962C273.202 310.922 291.989 392.309 291.989 392.309L227.061 401.51C227.061 401.51 208.189 307.853 206.337 300.034C206.337 300.034 148.942 274.028 157.36 246.376C165.777 218.724 201.586 226.236 201.586 226.236" stroke="black" stroke-width="0.75" stroke-miterlimit="10" stroke-linecap="round" stroke-linejoin="round"/>
<path d="M227.736 228.471C227.736 228.471 226.233 236.57 225.822 239.806" stroke="black" stroke-width="0.75" stroke-miterlimit="10" stroke-linecap="round" stroke-linejoin="round"/>
<path d="M234.83 77.4826C238.765 72.6506 238.848 67.5466 237.675 63.7206C235.089 55.2876 228.426 58.1846 228.595 41.5536C228.764 24.9226 205.333 10.1786 189.91 13.0276C189.91 13.0276 171.352 14.4766 168.142 33.7666C164.932 53.0576 167.536 49.1836 159.744 55.7506C153.523 60.9936 151.441 71.7256 157.55 80.1036C149.204 84.3846 143.489 93.0686 143.489 103.093C143.489 117.358 155.053 128.921 169.317 128.921C183.582 128.921 219.743 109.791 228.964 109.791C238.184 109.791 245.659 102.316 245.659 93.0956C245.659 85.9446 241.152 79.8596 234.83 77.4826Z" fill="black"/>
<path d="M224.952 91.9166C224.952 91.9166 255.233 112.172 277.694 150.605C300.155 189.039 255.559 201.132 237.524 192.164C219.489 183.196 224.952 91.9166 224.952 91.9166Z" fill="#F4A8FF"/>
<path d="M261.052 205.332C260.724 205.141 260.202 204.958 259.514 204.791L259.519 204.79C259.519 204.79 262.935 192.529 252.614 146.991C242.293 101.452 224.952 91.9156 224.952 91.9156C224.952 91.9156 194.176 68.9266 161.243 134.182C128.31 199.437 160.322 263.013 160.322 263.013C160.322 263.013 180.249 234.37 223.765 222.105C263.166 211 269.63 220.004 270.501 221.807C269.657 219.744 264.471 207.319 261.052 205.332Z" fill="#F4A8FF"/>
<path d="M270.501 221.808C270.578 221.996 270.622 222.106 270.622 222.106C270.622 222.106 270.592 221.997 270.501 221.808Z" fill="#F4A8FF"/>
<path d="M257.204 206.091C257.204 206.091 258.759 206.887 261.701 213.532" stroke="#FEFFFF" stroke-width="0.75" stroke-miterlimit="10" stroke-linecap="round" stroke-linejoin="round"/>
<path d="M247.851 206.091C247.851 206.091 249.726 209.082 251.425 213.631" stroke="#FEFFFF" stroke-width="0.75" stroke-miterlimit="10" stroke-linecap="round" stroke-linejoin="round"/>
<path d="M233.165 207.89C233.165 207.89 236.914 213.594 238.337 215.947" stroke="#FEFFFF" stroke-width="0.75" stroke-miterlimit="10" stroke-linecap="round" stroke-linejoin="round"/>
<path d="M220.265 210.105C220.265 210.105 222.434 214.044 223.765 218.917" stroke="#FEFFFF" stroke-width="0.75" stroke-miterlimit="10" stroke-linecap="round" stroke-linejoin="round"/>
<path d="M208.493 215.577C208.493 215.577 209.557 218.397 211.03 222.106" stroke="#FEFFFF" stroke-width="0.75" stroke-miterlimit="10" stroke-linecap="round" stroke-linejoin="round"/>
<path d="M194.246 220.963L196.884 228.148" stroke="#FEFFFF" stroke-width="0.75" stroke-miterlimit="10" stroke-linecap="round" stroke-linejoin="round"/>
<path d="M181.636 228.471L184.26 235.567" stroke="#FEFFFF" stroke-width="0.75" stroke-miterlimit="10" stroke-linecap="round" stroke-linejoin="round"/>
<path d="M168.467 235.567L172.057 245.428" stroke="#FEFFFF" stroke-width="0.75" stroke-miterlimit="10" stroke-linecap="round" stroke-linejoin="round"/>
<path d="M243.937 119.175C247.014 126.473 250.033 135.607 252.613 146.992C262.934 192.531 259.518 204.791 259.518 204.791" stroke="black" stroke-width="0.75" stroke-miterlimit="10" stroke-linecap="round" stroke-linejoin="round"/>
<path d="M188.927 216.841C229.841 201.848 257.32 203.165 261.052 205.333C264.784 207.501 270.622 222.107 270.622 222.107C270.622 222.107 267.281 209.842 223.765 222.107C180.249 234.372 160.322 263.015 160.322 263.015C160.322 263.015 128.311 199.439 161.243 134.184C181.826 93.3986 201.566 87.0846 213.477 88.0846" stroke="black" stroke-width="0.75" stroke-miterlimit="10" stroke-linecap="round" stroke-linejoin="round"/>
<path d="M198.894 171.731C198.894 171.731 204.568 158.969 227.205 158.038C249.842 157.107 235.101 186.228 235.101 186.228L207.965 194.144L198.894 171.731Z" fill="#AA5C54"/>
<path d="M203.793 161.342C203.793 161.342 194.918 163.963 159.321 169.583L172.041 167.071L182.386 143.272L191.783 101.537L179.92 92.4026C179.92 92.4026 101.735 136.491 113.016 193.728C124.071 249.819 202.795 214.953 219.676 191.031L203.793 161.342Z" fill="#F4A8FF"/>
<path d="M133.548 222.39C160.057 235.547 206.832 209.232 219.676 191.031L203.794 161.342C203.794 161.342 196.098 163.615 166.295 168.466" stroke="black" stroke-width="0.75" stroke-miterlimit="10" stroke-linecap="round" stroke-linejoin="round"/>
<path d="M188.698 168.422L206.004 199.643" stroke="black" stroke-width="0.75" stroke-miterlimit="10" stroke-linecap="round" stroke-linejoin="round"/>
<path d="M192.395 170.028L204.026 166.612" stroke="#FEFFFF" stroke-width="0.75" stroke-miterlimit="10" stroke-linecap="round" stroke-linejoin="round"/>
<path d="M196.96 179.189L206.004 174.103" stroke="#FEFFFF" stroke-width="0.75" stroke-miterlimit="10" stroke-linecap="round" stroke-linejoin="round"/>
<path d="M202.548 187.882L210.824 182.971" stroke="#FEFFFF" stroke-width="0.75" stroke-miterlimit="10" stroke-linecap="round" stroke-linejoin="round"/>
<path d="M207.965 196.802L214.557 191.031" stroke="#FEFFFF" stroke-width="0.75" stroke-miterlimit="10" stroke-linecap="round" stroke-linejoin="round"/>
<path d="M182.386 143.272L172.041 167.071" stroke="black" stroke-width="0.75" stroke-miterlimit="10" stroke-linecap="round" stroke-linejoin="round"/>
<path d="M201.642 77.7986C201.642 77.7986 221.954 73.5286 227.932 88.2796C232.353 99.1876 219.551 110.61 195.34 109.313C171.129 108.016 169.058 96.9876 169.928 90.3066C171.039 81.7756 180.159 73.9176 201.642 77.7986Z" fill="#F4A8FF"/>
<path d="M179.234 78.8956C184.316 76.7296 191.638 75.9916 201.641 77.7986C201.641 77.7986 212.295 75.5586 220.442 79.9276" stroke="black" stroke-width="0.75" stroke-miterlimit="10" stroke-linecap="round" stroke-linejoin="round"/>
<path d="M228.775 91.9166C229.367 101.57 216.861 110.467 195.339 109.314C173.166 108.126 169.562 98.7756 169.781 92.0786" stroke="black" stroke-width="0.75" stroke-miterlimit="10" stroke-linecap="round" stroke-linejoin="round"/>
<path d="M187.988 93.344L208.64 92.6228L207.332 55.1623L186.68 55.8835L187.988 93.344Z" fill="#AA5C54" stroke="black" stroke-width="0.75" stroke-miterlimit="10" stroke-linecap="round" stroke-linejoin="round"/>
<path d="M175.558 56.5526C175.864 51.8536 179.953 48.2936 184.69 48.6016C186.556 48.7226 188.239 49.4326 189.581 50.5266L189.916 45.3816C190.447 37.2256 196.742 30.9336 203.906 31.3996L214.681 32.1006C221.845 32.5666 227.272 39.6216 226.742 47.7776L225.655 64.4806C225.124 72.6376 218.829 78.9296 211.665 78.4626L205.434 78.0576L188.594 64.4006C187.139 65.2766 185.411 65.7386 183.583 65.6196C178.846 65.3116 175.253 61.2516 175.558 56.5526Z" fill="#AA5C54"/>
<path d="M188.595 64.4006C187.14 65.2766 185.412 65.7386 183.584 65.6196C178.846 65.3116 175.253 61.2516 175.559 56.5526C175.865 51.8536 179.954 48.2936 184.691 48.6016C186.557 48.7226 188.24 49.4326 189.582 50.5266L189.917 45.3816C190.448 37.2256 196.743 30.9336 203.907 31.3996L214.682 32.1006C221.846 32.5666 227.273 39.6216 226.743 47.7776L225.656 64.4806C225.125 72.6366 218.83 78.9286 211.666 78.4626L205.435 78.0576" stroke="black" stroke-width="0.75" stroke-miterlimit="10" stroke-linecap="round" stroke-linejoin="round"/>
<path d="M188.704 58.5366C188.704 58.5366 189.458 52.7816 183.481 53.0376" stroke="black" stroke-width="0.75" stroke-miterlimit="10" stroke-linecap="round" stroke-linejoin="round"/>
<path d="M231.072 30.5606C226.595 21.1666 217.37 14.1906 207.112 12.4416C196.854 10.6926 185.838 14.2186 178.502 21.5986C178.502 21.5986 172.893 31.8286 171.982 37.5806C171.249 42.2106 175.964 48.8836 177.832 51.3126C179.53 49.4986 182.005 48.4286 184.691 48.6026C186.557 48.7236 188.24 49.4326 189.582 50.5276C189.582 50.5276 190.178 51.3306 190.858 52.4306C191.595 52.0766 192.276 51.4726 193.06 51.1936C194.13 50.8126 195.314 51.0776 196.443 50.9506C198.72 50.6946 200.509 48.8996 201.844 47.0366C204.314 43.5906 205.924 39.5326 206.49 35.3316L207.057 35.4356C209.365 39.2246 211.925 43.2386 216.005 44.9826C217.702 45.7076 219.551 45.9826 221.376 46.2506C223.315 46.5356 225.255 46.8206 227.194 47.1056C228.04 47.2306 228.925 47.3516 229.734 47.0736C230.777 46.7156 231.497 45.7596 231.998 44.7776C234.233 40.3916 233.19 35.0036 231.072 30.5606Z" fill="black"/>
<path d="M214.988 82.3396C214.988 82.3396 202.35 86.3356 184.067 81.2036C184.067 81.2036 179.883 91.2286 189.27 96.2816C198.658 101.336 223.218 93.7966 214.988 82.3396Z" fill="#F4A8FF"/>
<path d="M214.988 82.3396C214.988 82.3396 202.35 86.3356 184.067 81.2036" stroke="black" stroke-width="0.75" stroke-miterlimit="10" stroke-linecap="round" stroke-linejoin="round"/>
<path d="M221.083 99.8806C220.526 94.8786 218.501 90.0486 215.322 86.1466" stroke="#FEFFFF" stroke-width="0.75" stroke-miterlimit="10" stroke-linecap="round" stroke-linejoin="round"/>
<path d="M206.047 87.5126C206.035 93.1126 206.338 98.7146 206.955 104.281" stroke="#FEFFFF" stroke-width="0.75" stroke-miterlimit="10" stroke-linecap="round" stroke-linejoin="round"/>
<path d="M194.052 87.2296C192.408 92.9086 191.396 98.7706 191.04 104.673" stroke="#FEFFFF" stroke-width="0.75" stroke-miterlimit="10" stroke-linecap="round" stroke-linejoin="round"/>
<path d="M186.096 86.0016C182.242 89.1766 179.147 93.2666 177.137 97.8376" stroke="#FEFFFF" stroke-width="0.75" stroke-miterlimit="10" stroke-linecap="round" stroke-linejoin="round"/>
<path d="M180.389 82.9766C178.102 83.9896 176.039 85.5076 174.393 87.3906" stroke="#FEFFFF" stroke-width="0.75" stroke-miterlimit="10" stroke-linecap="round" stroke-linejoin="round"/>
<path d="M224.695 88.2196C223.633 86.0186 221.985 84.1046 219.967 82.7266" stroke="#FEFFFF" stroke-width="0.75" stroke-miterlimit="10" stroke-linecap="round" stroke-linejoin="round"/>
<path d="M204.337 53.9506C204.25 55.2926 205.266 56.4506 206.608 56.5376C207.95 56.6246 209.108 55.6086 209.195 54.2666C209.282 52.9256 208.266 51.7666 206.924 51.6796C205.583 51.5916 204.424 52.6086 204.337 53.9506Z" fill="black"/>
<path d="M220.262 54.6286C220.187 55.7736 221.055 56.7626 222.2 56.8366C223.345 56.9116 224.334 56.0436 224.408 54.8976C224.483 53.7526 223.615 52.7646 222.47 52.6896C221.325 52.6166 220.337 53.4836 220.262 54.6286Z" fill="black"/>
<path d="M215.034 52.2066L218.385 58.8516L213.905 61.1976L215.034 52.2066Z" fill="#843E3E"/>
<path d="M203.027 50.4866L207.306 49.0906" stroke="black" stroke-width="0.75" stroke-miterlimit="10" stroke-linecap="round" stroke-linejoin="round"/>
<path d="M220.921 50.2226L224.875 51.0716" stroke="black" stroke-width="0.75" stroke-miterlimit="10" stroke-linecap="round" stroke-linejoin="round"/>
<path d="M210.649 67.0316C210.515 69.0966 212.08 70.8786 214.144 71.0136C216.209 71.1476 217.991 69.5826 218.126 67.5186L210.649 67.0316Z" stroke="black" stroke-width="0.75" stroke-miterlimit="10" stroke-linecap="round" stroke-linejoin="round"/>
<path d="M194.111 60.5936C194.212 63.4816 196.635 65.7416 199.524 65.6406C202.412 65.5396 204.672 63.1166 204.571 60.2276C204.47 57.3396 202.047 55.0796 199.158 55.1806C196.27 55.2816 194.01 57.7046 194.111 60.5936Z" fill="#843E3E"/>
<path d="M220.552 62.3986C220.461 59.7956 222.498 57.6106 225.101 57.5196C225.343 57.5116 225.58 57.5286 225.813 57.5556L225.364 64.4616C225.309 65.3096 225.178 66.1316 225.002 66.9326C222.592 66.7996 220.638 64.8566 220.552 62.3986Z" fill="#843E3E"/>
<path d="M268.804 198.628C269.99 200.629 271.516 202.154 273.101 203.242L279.071 202.176C279.071 202.176 277.168 195.779 276.216 195.198C275.264 194.617 268.804 198.628 268.804 198.628Z" fill="#AA5C54" stroke="black" stroke-width="0.75" stroke-miterlimit="10" stroke-linecap="round" stroke-linejoin="round"/>
<path d="M247.561 140.763C247.561 140.763 250.943 127.27 257.077 126.412C276.506 123.695 299.162 135.766 308.069 139.392L299.493 153.486C299.493 153.486 245.758 145.26 245.84 145.302C245.923 145.344 247.561 140.763 247.561 140.763Z" fill="#FEFFFF" stroke="black" stroke-width="0.75" stroke-miterlimit="10" stroke-linecap="round" stroke-linejoin="round"/>
<path d="M230.485 148.304C230.485 148.304 239.341 136.03 241.574 135.241C243.807 134.453 292.501 137.14 308.069 139.391C308.069 139.391 330.98 125.915 332.286 126.431C333.592 126.947 335.479 128.131 335.056 130.763C334.633 133.395 311.699 158.183 311.699 158.183C311.699 158.183 227.208 159.512 230.485 148.304Z" fill="#FEFFFF" stroke="black" stroke-width="0.75" stroke-miterlimit="10" stroke-linecap="round" stroke-linejoin="round"/>
<path d="M303.437 143.36C303.437 143.36 303.25 140.685 303.646 140.764C304.043 140.843 311.975 141.067 312.677 140.975C313.38 140.883 308.344 145.165 307.531 145.106C306.719 145.046 303.437 143.36 303.437 143.36Z" fill="black"/>
<path d="M259.772 198.243L257.511 199.425L196.413 207.485C196.413 207.485 185.645 209.145 188.928 202.198C192.211 195.251 231.59 142.724 231.59 142.724C231.59 142.724 233.149 137.484 245.457 138.126C257.766 138.768 303.377 141.122 303.377 141.122L259.772 198.243Z" fill="#9281FF"/>
<path d="M305.759 145.957L312.429 141.122C312.429 141.122 332.201 129.519 336.536 129.528C341.669 129.539 291.223 197.596 291.223 197.596L266.096 200.637L305.759 145.957Z" fill="#9281FF"/>
<path d="M257.51 194.392L298.545 142.724" stroke="black" stroke-width="0.75" stroke-miterlimit="10" stroke-linecap="round" stroke-linejoin="round"/>
<path d="M257.51 199.425C257.51 199.425 261.355 201.188 266.096 200.638L312.429 141.123C312.429 141.123 309.416 144.631 303.377 141.123L257.51 199.425Z" fill="#9281FF" stroke="black" stroke-width="0.75" stroke-miterlimit="10" stroke-linecap="round" stroke-linejoin="round"/>
<path d="M303.377 141.122L242.239 138.093" stroke="black" stroke-width="0.75" stroke-miterlimit="10" stroke-linecap="round" stroke-linejoin="round"/>
<path d="M312.429 141.122C312.429 141.122 325.338 133.439 334.162 130.298" stroke="black" stroke-width="0.75" stroke-miterlimit="10" stroke-linecap="round" stroke-linejoin="round"/>
<path d="M196.412 207.485L257.51 199.425" stroke="black" stroke-width="0.75" stroke-miterlimit="10" stroke-linecap="round" stroke-linejoin="round"/>
<path d="M305.615 170.735C303.532 169.523 298.937 170.316 299.549 179.497L299.555 180.459C298.845 176.72 297.344 173.378 294.22 173.821C288.293 174.662 289.919 181.994 289.919 181.994V181.995C288.656 179.402 286.803 177.901 284.154 178.804C279.449 180.408 280.902 190.573 280.902 190.573V190.575C278.907 186.889 276.414 184.272 273.405 186.175C268.974 188.977 276.737 201.298 276.737 201.298L272.641 202.915C275.135 204.948 278.027 205.518 280.541 205.125C281.825 204.924 282.971 203.925 283.667 202.642C283.667 202.642 287.397 204.385 289.633 202.98C290.693 202.314 291.438 200.613 291.843 198.353L291.89 198.755C293.16 200.032 295.261 200.464 296.993 199.435C298.363 198.621 299.177 196.356 299.637 193.96L299.639 194.284C299.639 194.284 303.237 192.555 305.384 186.343C307.531 180.129 308.424 172.37 305.615 170.735Z" fill="#AA5C54"/>
<path d="M276.738 201.296C276.738 201.296 268.975 188.975 273.406 186.173C277.837 183.371 281.153 190.37 283.4 196.155C285.647 201.94 283.122 204.244 280.542 205.124C278.588 205.791 275.378 204.787 272.569 202.859" stroke="black" stroke-width="0.75" stroke-miterlimit="10" stroke-linecap="round" stroke-linejoin="round"/>
<path d="M280.902 190.572C280.902 190.572 279.45 180.407 284.155 178.803C288.86 177.199 291.055 183.178 291.888 189.39C292.721 195.602 291.87 201.574 289.634 202.979C287.399 204.383 283.668 202.641 283.668 202.641" stroke="black" stroke-width="0.75" stroke-miterlimit="10" stroke-linecap="round" stroke-linejoin="round"/>
<path d="M289.919 181.994C289.919 181.994 288.293 174.663 294.22 173.821C300.147 172.98 300.236 185.764 300.154 189.039C300.072 192.313 299.357 198.03 296.994 199.434C295.262 200.463 293.161 200.031 291.891 198.754" stroke="black" stroke-width="0.75" stroke-miterlimit="10" stroke-linecap="round" stroke-linejoin="round"/>
<path d="M299.64 194.283C299.64 194.283 303.238 192.554 305.385 186.342C307.531 180.13 308.425 172.371 305.615 170.735C303.532 169.523 298.937 170.316 299.549 179.496" stroke="black" stroke-width="0.75" stroke-miterlimit="10" stroke-linecap="round" stroke-linejoin="round"/>
<path d="M25.8107 330.621C25.8107 330.621 -27.0413 278.883 -16.6453 258.729C-7.60534 241.204 21.3257 261.16 36.8977 326.44L25.8107 330.621Z" fill="#9281FF"/>
<path d="M-5.34433 265.463L33.0757 331.565" stroke="black" stroke-width="0.75" stroke-miterlimit="10" stroke-linecap="round" stroke-linejoin="round"/>
<path d="M53.4277 334.142C53.4277 334.142 75.2007 260.36 98.8607 275.289C116.778 286.595 68.7967 336.674 68.7967 336.674L53.4277 334.142Z" fill="#9281FF"/>
<path d="M63.3367 333.427L92.5527 287.958" stroke="black" stroke-width="0.75" stroke-miterlimit="10" stroke-linecap="round" stroke-linejoin="round"/>
<path d="M36.8987 331.446C36.8987 331.446 17.1307 264.886 14.1167 233.515C11.1037 202.144 33.1327 194.91 44.7657 207.623C59.0537 223.238 53.6797 300.752 49.5137 330.621L36.8987 331.446Z" fill="#9281FF"/>
<path d="M30.5537 215.571L43.3847 329.662" stroke="black" stroke-width="0.75" stroke-miterlimit="10" stroke-linecap="round" stroke-linejoin="round"/>
<path d="M45.9307 333.427C45.9307 333.427 63.6037 224.334 85.2957 224.882C106.988 225.43 80.1397 290.89 59.5937 330.621L45.9307 333.427Z" fill="#9281FF"/>
<path d="M52.2986 331.565L85.2956 236.525" stroke="black" stroke-width="0.75" stroke-miterlimit="10" stroke-linecap="round" stroke-linejoin="round"/>
<path d="M78.8057 401.51H19.7587L7.96069 324.139H93.8477L78.8057 401.51Z" fill="#F4CAFC"/>
<path d="M7.96069 324.139H93.8477" stroke="black" stroke-width="0.75" stroke-miterlimit="10" stroke-linecap="round" stroke-linejoin="round"/>
<path d="M10.5067 340.838H91.7977" stroke="black" stroke-width="0.75" stroke-miterlimit="10" stroke-linecap="round" stroke-linejoin="round"/>
<path d="M156.092 330.338C156.092 330.338 138.638 355.889 143.601 370.555C148.564 385.221 166.934 388.53 177.052 384.252C187.17 379.974 187.085 367.072 179.614 360.82C173.405 355.624 183.852 334.633 183.852 334.633L156.092 330.338Z" fill="#F4CAFC"/>
<path d="M160.366 332.257C160.366 332.257 146.987 353.568 149.623 365.736C152.259 377.905 168.592 383.426 180.953 381.395" stroke="black" stroke-width="0.75" stroke-miterlimit="10" stroke-linecap="round" stroke-linejoin="round"/>
<path d="M170.536 334.795C170.536 334.795 155.689 356.395 162.26 367.657C168.831 378.919 183.783 376.299 183.783 376.299" stroke="black" stroke-width="0.75" stroke-miterlimit="10" stroke-linecap="round" stroke-linejoin="round"/>
<path d="M178.631 336.269C178.631 336.269 166.184 352.377 170.84 362.951C175.496 373.525 184.959 372.332 184.959 372.332" stroke="black" stroke-width="0.75" stroke-miterlimit="10" stroke-linecap="round" stroke-linejoin="round"/>
<path d="M143.029 360.564C142.52 364.139 142.592 367.573 143.601 370.555C145.603 376.472 149.789 380.538 154.734 383.006C158.408 379.558 159.928 374.151 158.161 369.087C155.956 362.765 149.411 359.207 143.029 360.564Z" fill="#9281FF"/>
<path d="M182.373 363.899C179.063 368.008 173.848 376.033 174.585 385.095C175.448 384.858 176.277 384.58 177.052 384.252C185.711 380.591 186.893 370.618 182.373 363.899Z" fill="#9281FF"/>
<path d="M156.092 330.338C156.092 330.338 138.638 355.889 143.601 370.555C148.564 385.221 166.934 388.53 177.052 384.252C187.17 379.974 187.085 367.072 179.614 360.82C173.405 355.624 183.852 334.633 183.852 334.633L156.092 330.338Z" stroke="black" stroke-width="0.75" stroke-miterlimit="10" stroke-linecap="round" stroke-linejoin="round"/>
<path d="M164.778 263.677C164.778 263.677 179.143 266.761 184.129 271.733C189.825 277.413 197.57 294.692 183.304 358.162L141.205 348.776L156.838 260.36L164.778 263.677Z" fill="#FEFFFF"/>
<path d="M185.251 349.123H185.213V333.862H188.11C188.163 333.541 188.214 333.227 188.266 332.909H185.213V317.648H190.363C190.397 317.33 190.433 317.008 190.465 316.695H185.213V301.434H191.404C191.408 301.112 191.409 300.797 191.41 300.481H185.213V285.22H190.205C190.143 284.896 190.079 284.578 190.012 284.267H185.213V272.938C184.892 272.54 184.574 272.186 184.26 271.866V284.268H168.999V269.008H180.239C179.623 268.677 178.98 268.359 178.318 268.055H168.999V264.747C168.666 264.654 168.35 264.567 168.046 264.485V268.055H155.476L155.308 269.008H168.047V284.268H152.786V283.272L151.833 288.661V300.482H149.743L149.574 301.435H151.833V316.696H146.876L146.708 317.649H151.833V332.91H144.01L143.841 333.863H151.833V349.124H142.76L147.034 350.077H151.833V351.147L152.786 351.359V350.076H168.047V354.761L169 354.973V350.076H184.261V353.813C184.604 352.22 184.936 350.654 185.251 349.123ZM168.047 349.123H152.786V333.862H168.047V349.123ZM168.047 332.909H152.786V317.648H168.047V332.909ZM168.047 316.696H152.786V301.435H168.047V316.696ZM168.047 300.482H152.786V285.221H168.047V300.482ZM169 285.222H184.261V300.483H169V285.222ZM169 301.435H184.261V316.696H169V301.435ZM169 317.649H184.261V332.91H169V317.649ZM169 349.123V333.862H184.261V349.123H169Z" fill="#F4A8FF"/>
<path d="M146.88 340.284L181.612 347.652" stroke="black" stroke-width="0.75" stroke-miterlimit="10" stroke-linecap="round" stroke-linejoin="round"/>
<path d="M164.778 263.677C164.778 263.677 179.143 266.761 184.129 271.733C189.825 277.413 197.57 294.692 183.304 358.162L141.205 348.776L156.838 260.36L164.778 263.677Z" stroke="black" stroke-width="0.75" stroke-miterlimit="10" stroke-linecap="round" stroke-linejoin="round"/>
<path d="M161.027 420.045H74.6236C67.0906 420.045 60.9836 413.938 60.9836 406.405V315.997C60.9836 308.464 67.0906 302.357 74.6236 302.357H161.027C168.56 302.357 174.667 308.464 174.667 315.997V406.405C174.667 413.938 168.56 420.045 161.027 420.045Z" fill="#FEFFFF" stroke="black" stroke-width="0.75" stroke-miterlimit="10" stroke-linecap="round" stroke-linejoin="round"/>
<path d="M134.064 412.654H161.381" stroke="black" stroke-width="0.75" stroke-miterlimit="10" stroke-linecap="round" stroke-linejoin="round"/>
<path d="M96.2147 349.716C96.2147 349.716 94.8526 331.657 99.5066 330.659C104.161 329.661 108.571 345.479 108.571 345.479L96.2147 349.716Z" fill="#F7D202"/>
<path d="M99.5067 346.996C99.5067 346.996 97.1207 335.712 99.5067 334.733C101.893 333.754 104.891 345.016 104.891 345.016" stroke="black" stroke-width="0.75" stroke-miterlimit="10" stroke-linecap="round" stroke-linejoin="round"/>
<path d="M141.641 349.716C141.641 349.716 143.003 331.657 138.349 330.659C133.696 329.661 129.285 345.479 129.285 345.479L141.641 349.716Z" fill="#F7D202"/>
<path d="M138.349 346.996C138.349 346.996 140.735 335.712 138.349 334.733C135.963 333.754 132.966 345.016 132.966 345.016" stroke="black" stroke-width="0.75" stroke-miterlimit="10" stroke-linecap="round" stroke-linejoin="round"/>
<path d="M118.928 401.907C138.387 401.907 154.162 388.157 154.162 371.197C154.162 354.236 138.387 340.487 118.928 340.487C99.4685 340.487 83.6937 354.236 83.6937 371.197C83.6937 388.157 99.4685 401.907 118.928 401.907Z" fill="#F7D202"/>
<path d="M108.473 342.259C108.473 342.259 106.886 353.495 111.435 352.967C115.985 352.439 115.741 342.437 115.741 342.437C115.741 342.437 115.752 353.452 120.343 353.139C124.934 352.826 122.853 342.404 122.853 342.404C122.853 342.404 123.507 354.508 127.562 353.293C131.617 352.078 128.521 342.852 128.521 342.852" stroke="black" stroke-width="0.75" stroke-miterlimit="10" stroke-linecap="round" stroke-linejoin="round"/>
<path d="M89.7097 355.533C89.7097 355.533 96.6607 355.965 96.6167 360.112C96.5727 364.259 89.7097 363.489 89.7097 363.489C89.7097 363.489 95.8917 363.916 95.2337 368.393C94.5757 372.87 88.2697 372.067 88.2697 372.067C88.2697 372.067 94.0327 372.433 93.4287 377.231C92.8247 382.028 85.8397 379.657 85.8397 379.657" stroke="black" stroke-width="0.75" stroke-miterlimit="10" stroke-linecap="round" stroke-linejoin="round"/>
<path d="M151.442 383.044C151.442 383.044 141.76 383.906 141.399 378.543C141.038 373.18 149.097 375.347 149.097 375.347C149.097 375.347 141.964 373.326 142.494 369.642C143.024 365.958 151.442 367.889 151.442 367.889C151.442 367.889 142.194 367.115 143.547 362.209C144.617 358.329 152.227 361.156 152.227 361.156" stroke="black" stroke-width="0.75" stroke-miterlimit="10" stroke-linecap="round" stroke-linejoin="round"/>
<path d="M92.9316 350.467C99.3736 344.334 108.636 340.487 118.928 340.487C130.851 340.487 141.391 345.649 147.767 353.548" stroke="black" stroke-width="0.75" stroke-miterlimit="10" stroke-linecap="round" stroke-linejoin="round"/>
<path d="M118.313 365.387C118.313 365.387 110.625 364.076 113.942 360.939C115.681 359.294 121.682 358.884 121.951 361.119C122.22 363.353 118.313 365.387 118.313 365.387Z" fill="black"/>
<path d="M103.924 368.596C103.924 368.596 99.5677 375.193 105.767 376.33C111.966 377.467 117.322 371.096 118.313 365.387C118.313 365.387 118.35 372.4 124.98 373.905C131.61 375.41 132.07 369.538 129.493 367.89" stroke="black" stroke-width="0.75" stroke-miterlimit="10" stroke-linecap="round" stroke-linejoin="round"/>
<path d="M114.937 374.372C115.052 375.389 115.234 376.43 115.911 377.239C116.47 377.906 117.306 378.314 118.165 378.407C120.006 378.605 121.612 377.122 121.769 375.321C121.811 374.84 121.061 374.843 121.019 375.321C120.897 376.725 119.571 377.841 118.165 377.657C117.503 377.571 116.864 377.229 116.441 376.709C115.914 376.06 115.777 375.178 115.686 374.373C115.634 373.898 114.883 373.893 114.937 374.372Z" fill="black"/>
<path d="M135.12 366.531C136.8 366.531 138.162 365.169 138.162 363.489C138.162 361.809 136.8 360.447 135.12 360.447C133.44 360.447 132.078 361.809 132.078 363.489C132.078 365.169 133.44 366.531 135.12 366.531Z" fill="black"/>
<path d="M105.777 362.899C105.777 364.579 104.415 365.941 102.735 365.941C101.055 365.941 99.6927 364.579 99.6927 362.899C99.6927 361.219 101.055 359.857 102.735 359.857C104.415 359.857 105.777 361.219 105.777 362.899Z" fill="black"/>
<path d="M201.585 337.43C201.585 337.43 219.962 362.325 235.444 362.47C250.926 362.614 260.101 346.359 259.394 335.396C258.687 324.433 246.477 320.264 238.113 325.26C231.162 329.412 214.783 312.634 214.783 312.634L201.585 337.43Z" fill="#F4CAFC"/>
<path d="M204.804 334.027C204.804 334.027 220.519 353.678 232.877 355.197C245.235 356.716 255.828 343.112 257.981 330.772" stroke="black" stroke-width="0.75" stroke-miterlimit="10" stroke-linecap="round" stroke-linejoin="round"/>
<path d="M210.55 325.26C210.55 325.26 226.055 346.392 238.853 343.897C251.651 341.402 254.101 326.421 254.101 326.421" stroke="black" stroke-width="0.75" stroke-miterlimit="10" stroke-linecap="round" stroke-linejoin="round"/>
<path d="M214.608 318.102C214.608 318.102 225.718 335.16 237.236 334.246C248.754 333.332 250.744 324.004 250.744 324.004" stroke="black" stroke-width="0.75" stroke-miterlimit="10" stroke-linecap="round" stroke-linejoin="round"/>
<path d="M225.822 359.719C229.03 361.377 232.296 362.44 235.444 362.47C241.69 362.528 246.908 359.915 250.866 356.059C248.821 351.454 244.215 348.239 238.852 348.239C232.157 348.238 226.643 353.247 225.822 359.719Z" fill="#9281FF"/>
<path d="M241.928 323.669C244.717 328.148 250.578 335.714 259.377 338.003C259.437 337.11 259.448 336.236 259.394 335.396C258.789 326.014 249.762 321.614 241.928 323.669Z" fill="#9281FF"/>
<path d="M201.585 337.43C201.585 337.43 219.962 362.325 235.444 362.47C250.926 362.614 260.101 346.359 259.394 335.396C258.687 324.433 246.477 320.264 238.113 325.26C231.162 329.412 214.783 312.634 214.783 312.634L201.585 337.43Z" stroke="black" stroke-width="0.75" stroke-miterlimit="10" stroke-linecap="round" stroke-linejoin="round"/>
<path d="M156.208 262.088C156.208 262.088 174.263 269.248 184.502 275.939C194.741 282.63 234.756 319.231 234.756 319.231L208.492 356.497C208.492 356.497 168.018 318.781 162.775 319.08C157.069 319.406 134.171 321.463 134.171 321.463C134.171 321.463 101.652 325.622 95.6327 302.884C89.6147 280.147 127.193 259.756 156.208 262.088Z" fill="#FEFFFF"/>
<path d="M219.745 337.43V340.531L220.698 339.179V337.43H221.931L222.602 336.477H220.698V321.216H233.357L234.029 320.263H220.698V306.529C220.383 306.247 220.066 305.963 219.745 305.677V320.263H204.484V305.002H218.99C218.637 304.687 218.281 304.369 217.922 304.049H204.484V292.213C204.166 291.937 203.848 291.661 203.531 291.387V304.048H188.27V288.787H200.513C200.139 288.466 199.768 288.149 199.399 287.834H188.271V278.677C187.943 278.423 187.625 278.18 187.318 277.948V287.834H172.057V272.573H178.823C178.238 272.253 177.648 271.935 177.05 271.62H172.057V269.099C171.739 268.944 171.421 268.791 171.104 268.639V271.62H155.843V262.059C155.526 262.036 155.209 262.012 154.89 261.994V271.619H139.629V262.982C139.311 263.038 138.994 263.097 138.676 263.157V271.619H123.415V267.679C123.096 267.81 122.778 267.941 122.462 268.075V271.619H115.248C114.696 271.93 114.153 272.249 113.616 272.572H122.461V287.833H107.2V277.028C106.877 277.288 106.56 277.549 106.247 277.814V287.833H97.7547C97.5817 288.149 97.4167 288.467 97.2587 288.786H106.247V304.047H95.9927C96.0937 304.365 96.1847 304.693 96.2967 305H106.248V316.699C106.564 316.884 106.878 317.074 107.201 317.246V305H122.462V320.261H115.239C116.92 320.68 118.591 320.99 120.207 321.214H122.461V321.478C122.781 321.509 123.101 321.54 123.414 321.565V321.214H136.941C139.531 320.984 143.623 320.624 147.853 320.261H139.627V305H154.888V319.67C155.21 319.644 155.528 319.618 155.841 319.592V305H171.102V320.261H165.685C166.148 320.535 166.654 320.857 167.192 321.214H171.102V324.016C171.415 324.252 171.731 324.494 172.055 324.743V321.214H187.316V336.475H186.217C186.583 336.792 186.949 337.11 187.314 337.428H187.316V337.43C187.634 337.707 187.952 337.984 188.269 338.261V337.428H203.53V351.928C204.215 352.554 204.84 353.127 205.401 353.643H210.502L211.174 352.69H204.483V337.429H219.745V337.43ZM204.484 321.217H219.745V336.478H204.484V321.217ZM122.464 304.05H107.203V288.789H122.464V304.05ZM138.678 320.264H123.417V305.003H138.678V320.264ZM138.678 304.05H123.417V288.789H138.678V304.05ZM138.678 287.837H123.417V272.576H138.678V287.837ZM154.891 304.05H139.63V288.789H154.891V304.05ZM154.891 287.837H139.63V272.576H154.891V287.837ZM171.105 304.05H155.844V288.789H171.105V304.05ZM171.105 287.837H155.844V272.576H171.105V287.837ZM187.318 320.264H172.057V305.003H187.318V320.264ZM187.318 304.05H172.057V288.789H187.318V304.05ZM203.531 336.477H188.27V321.216H203.531V336.477ZM203.531 320.264H188.27V305.003H203.531V320.264Z" fill="#F4A8FF"/>
<path d="M156.208 262.088C156.208 262.088 174.263 269.248 184.502 275.939C194.741 282.63 234.756 319.231 234.756 319.231L208.492 356.497C208.492 356.497 168.018 318.781 162.775 319.08C157.069 319.406 134.171 321.463 134.171 321.463C134.171 321.463 101.652 325.622 95.6327 302.884C89.6147 280.147 127.193 259.756 156.208 262.088Z" stroke="black" stroke-width="0.75" stroke-miterlimit="10" stroke-linecap="round" stroke-linejoin="round"/>
<path d="M161.753 314.123L162.775 319.081L168.261 315.427" stroke="black" stroke-width="0.75" stroke-miterlimit="10" stroke-linecap="round" stroke-linejoin="round"/>
<path d="M201.585 345.696C201.882 345.197 223.765 315.427 223.765 315.427" stroke="black" stroke-width="0.75" stroke-miterlimit="10" stroke-linecap="round" stroke-linejoin="round"/>
<path d="M138.223 200.524L129.252 198.813C125.426 198.084 122.916 194.391 123.646 190.565L126.269 176.81C126.999 172.984 130.691 170.474 134.517 171.204L143.488 172.915C147.314 173.644 149.824 177.337 149.094 181.163L146.471 194.918C145.741 198.744 142.048 201.254 138.223 200.524Z" fill="#AA5C54" stroke="black" stroke-width="0.75" stroke-miterlimit="10" stroke-linecap="round" stroke-linejoin="round"/>
<path d="M160.537 153.401C160.537 153.401 164.988 156.675 166.636 158.159C168.165 159.536 164.949 163.126 163.11 163.573C161.269 164.021 160.537 153.401 160.537 153.401Z" fill="#843E3E"/>
<path d="M158.854 169.396C160.788 168.997 162.918 167.642 164.275 166.657C164.252 166.501 164.241 166.346 164.213 166.19L161.126 148.887C159.618 140.438 152.313 134.608 144.892 135.932L133.73 137.924C126.309 139.248 121.471 147.244 122.978 155.693L126.065 172.996C126.152 173.484 126.263 173.96 126.387 174.43C126.358 174.962 126.382 175.503 126.479 176.049L126.86 178.183L147.006 185.111L153.46 183.959C158.525 183.055 162.382 179.042 163.845 173.899C160.075 171.789 158.854 169.396 158.854 169.396Z" fill="#AA5C54"/>
<path d="M147.007 185.111L153.461 183.959C158.526 183.055 162.383 179.042 163.846 173.9C160.075 171.789 158.854 169.396 158.854 169.396C160.788 168.997 162.918 167.642 164.275 166.657C164.251 166.501 164.241 166.346 164.213 166.19L161.126 148.887C159.618 140.438 152.313 134.608 144.892 135.932L133.73 137.924C126.309 139.248 121.471 147.244 122.978 155.693L126.066 172.996C126.153 173.484 126.264 173.96 126.388 174.43C126.359 174.962 126.383 175.503 126.48 176.049" stroke="black" stroke-width="0.75" stroke-miterlimit="10" stroke-linecap="round" stroke-linejoin="round"/>
<path d="M134.789 146.713C134.789 146.713 154.839 147.178 159.274 136.149C163.709 125.12 153.24 118.955 143.324 122.042C143.324 122.042 146.842 112.225 137.297 111.799C127.752 111.373 121.917 125.993 121.917 125.993C121.917 125.993 96.9057 125.85 92.0357 148.636C87.2267 171.135 102.259 180.828 111.046 184.836C119.639 188.756 125.353 186.546 125.516 186.311L129.528 167.753C129.528 167.753 138.047 162.098 134.789 146.713Z" fill="black"/>
<path d="M111.615 173.648C112.484 178.516 117.166 181.752 122.074 180.877C126.982 180.001 130.257 175.345 129.388 170.477C128.52 165.609 123.837 162.373 118.929 163.248C114.021 164.124 110.746 168.78 111.615 173.648Z" fill="#AA5C54"/>
<path d="M125.516 172.369C125.516 172.369 124.839 166.312 118.81 168.075" stroke="black" stroke-width="0.75" stroke-miterlimit="10" stroke-linecap="round" stroke-linejoin="round"/>
<path d="M87.7877 127.118C87.6257 122.301 83.5886 118.528 78.7717 118.69C77.1376 118.745 75.6296 119.254 74.3486 120.08C72.8306 118.456 70.6517 117.467 68.2557 117.547C63.8517 117.695 60.4017 121.386 60.5497 125.79C60.5507 125.819 60.5556 125.847 60.5566 125.876C57.1886 126.495 54.6866 129.494 54.8056 133.02C54.8796 135.231 55.9696 137.166 57.6086 138.401C56.0496 139.992 55.1146 142.188 55.1956 144.59C55.3526 149.251 59.2586 152.902 63.9186 152.745C64.2016 152.735 64.4797 152.711 64.7547 152.674C66.2977 156.243 69.8987 158.688 74.0187 158.55C79.3957 158.369 83.6066 153.863 83.4256 148.487C83.3146 145.198 83.7167 141.93 81.1597 140.252C81.7617 139.035 80.9906 138.642 80.9416 137.19C80.9356 137.009 81.1887 136.047 81.1717 135.87C85.7487 135.458 87.9436 131.768 87.7877 127.118Z" fill="black"/>
<path d="M81.1847 142.314C79.0927 138.701 81.1087 134.121 85.2657 133.271C87.7677 132.76 90.3887 133.954 91.6687 136.164C93.7607 139.777 91.7447 144.357 87.5877 145.206C85.0857 145.719 82.4647 144.524 81.1847 142.314Z" fill="#F4A8FF"/>
<path d="M57.6795 160.289C59.4719 158.355 59.3573 155.334 57.4236 153.542C55.4899 151.75 52.4694 151.864 50.677 153.798C48.8846 155.731 48.9992 158.752 50.9329 160.544C52.8666 162.337 55.8871 162.222 57.6795 160.289Z" fill="black"/>
<path d="M116.106 205.456C116.106 205.456 111.092 200.104 113.016 193.728C114.939 187.353 122.362 181.234 140.535 186.311C158.708 191.388 166.92 204.294 160.175 219.105C153.43 233.915 132.182 222.669 128.372 212.306C124.562 201.942 116.106 205.456 116.106 205.456Z" fill="#B4A6EE" stroke="black" stroke-width="0.75" stroke-miterlimit="10" stroke-linecap="round" stroke-linejoin="round"/>
<path d="M119.933 201.166C119.933 201.166 118.75 194.344 120.294 189.836" stroke="black" stroke-width="0.75" stroke-miterlimit="10" stroke-linecap="round" stroke-linejoin="round"/>
<path d="M133.021 186.311C133.021 186.311 129.416 194.612 129.356 201.002" stroke="black" stroke-width="0.75" stroke-miterlimit="10" stroke-linecap="round" stroke-linejoin="round"/>
<path d="M137.134 203.029C137.134 203.029 143.849 198.218 146.467 192.164" stroke="black" stroke-width="0.75" stroke-miterlimit="10" stroke-linecap="round" stroke-linejoin="round"/>
<path d="M140.16 211.565C140.393 211.565 150.844 210.098 156.471 203.894" stroke="black" stroke-width="0.75" stroke-miterlimit="10" stroke-linecap="round" stroke-linejoin="round"/>
<path d="M141.8 218.705C142.497 218.693 150.335 220.18 157.78 215.446" stroke="black" stroke-width="0.75" stroke-miterlimit="10" stroke-linecap="round" stroke-linejoin="round"/>
<path d="M110.717 278.277C97.0987 287.981 97.3547 306.634 97.3547 306.634C97.3547 306.634 89.5087 305.187 83.7537 286.847C77.9977 268.507 99.4437 210.201 119.907 198.218C119.907 198.218 140.368 180.933 153.343 214.598C163.909 242.014 168.793 265.406 168.793 265.406C168.793 265.406 134.437 261.376 110.717 278.277Z" fill="#B4A6EE"/>
<path d="M118.646 273.553C117.929 272.626 116.818 272.018 115.555 272.018H114.908V271.371C114.908 269.206 113.153 267.45 110.987 267.45C108.822 267.45 107.066 269.205 107.066 271.371V272.018H106.419C104.254 272.018 102.498 273.773 102.498 275.939C102.498 278.104 104.253 279.86 106.419 279.86H107.066V280.507C107.066 280.784 107.096 281.054 107.151 281.315C108.22 280.236 109.402 279.214 110.717 278.277C113.255 276.468 115.919 274.912 118.646 273.553Z" fill="#F7D202"/>
<path d="M113.787 275.939C113.787 274.392 112.533 273.138 110.986 273.138C109.439 273.138 108.185 274.392 108.185 275.939C108.185 277.229 109.063 278.305 110.25 278.63C110.407 278.513 110.556 278.392 110.716 278.277C111.709 277.57 112.726 276.912 113.752 276.276C113.767 276.164 113.787 276.054 113.787 275.939Z" fill="#FEFFFF"/>
<path d="M85.9917 260.708V261.355C85.9917 263.52 87.7467 265.276 89.9127 265.276C92.0777 265.276 93.8337 263.521 93.8337 261.355V260.708H94.4807C96.6457 260.708 98.4017 258.953 98.4017 256.787C98.4017 254.622 96.6467 252.866 94.4807 252.866H93.8337V252.219C93.8337 250.054 92.0777 248.298 89.9127 248.298C89.5967 248.298 89.2937 248.345 88.9987 248.416C87.6007 252.598 86.3987 256.737 85.4367 260.707H85.9917V260.708Z" fill="#F7D202"/>
<path d="M89.9117 259.588C91.4587 259.588 92.7127 258.334 92.7127 256.787C92.7127 255.24 91.4587 253.986 89.9117 253.986C88.3648 253.986 87.1107 255.24 87.1107 256.787C87.1107 258.334 88.3648 259.588 89.9117 259.588Z" fill="#FEFFFF"/>
<path d="M94.0607 292.771C94.0607 290.606 92.3047 288.85 90.1397 288.85H89.4927V288.203C89.4927 286.038 87.7367 284.282 85.5717 284.282C84.7197 284.282 83.9377 284.56 83.2947 285.022C83.4217 285.667 83.5747 286.276 83.7537 286.847C85.4417 292.227 87.3097 296.145 89.1067 299.008C89.3477 298.5 89.4927 297.938 89.4927 297.339V296.692H90.1397C92.3047 296.691 94.0607 294.936 94.0607 292.771Z" fill="#F7D202"/>
<path d="M85.5717 289.97C85.3207 289.97 85.0807 290.014 84.8497 290.076C85.5507 291.987 86.2717 293.672 86.9967 295.17C87.8167 294.682 88.3727 293.795 88.3727 292.771C88.3727 291.224 87.1187 289.97 85.5717 289.97Z" fill="#FEFFFF"/>
<path d="M153.349 214.613C151.774 215.122 150.628 216.583 150.628 218.327C150.628 220.492 152.383 222.248 154.549 222.248H155.196V222.895C155.196 224.558 156.235 225.97 157.696 226.54C156.371 222.695 154.924 218.7 153.349 214.613Z" fill="#F7D202"/>
<path d="M149.795 248.703H150.442V248.056C150.442 245.891 152.197 244.135 154.363 244.135C156.528 244.135 158.284 245.89 158.284 248.056V248.703H158.931C161.096 248.703 162.852 250.458 162.852 252.624C162.852 254.789 161.097 256.545 158.931 256.545H158.284V257.192C158.284 259.357 156.529 261.113 154.363 261.113C152.198 261.113 150.442 259.358 150.442 257.192V256.545H149.795C147.63 256.545 145.874 254.789 145.874 252.624C145.874 250.459 147.63 248.703 149.795 248.703Z" fill="#F7D202"/>
<path d="M151.562 252.624C151.562 254.171 152.816 255.425 154.363 255.425C155.91 255.425 157.164 254.171 157.164 252.624C157.164 251.077 155.91 249.823 154.363 249.823C152.816 249.823 151.562 251.077 151.562 252.624Z" fill="#FEFFFF"/>
<path d="M91.9187 285.623C91.9187 285.623 97.9697 277.405 109.779 269.456C109.779 269.456 134.172 256.787 161.754 259.588" stroke="black" stroke-width="0.75" stroke-miterlimit="10" stroke-linecap="round" stroke-linejoin="round"/>
<path d="M139.411 195.65C143.935 198.396 149.416 204.407 153.343 214.597C163.909 242.013 168.793 265.405 168.793 265.405C168.793 265.405 134.437 261.376 110.718 278.277C97.0997 287.981 97.3557 306.634 97.3557 306.634C97.3557 306.634 93.4357 305.911 89.1047 299.01" stroke="black" stroke-width="0.75" stroke-miterlimit="10" stroke-linecap="round" stroke-linejoin="round"/>
<path d="M149.678 159.548C149.698 160.942 150.844 162.057 152.238 162.037C153.632 162.017 154.747 160.871 154.727 159.476C154.707 158.082 153.561 156.968 152.166 156.987C150.773 157.007 149.658 158.154 149.678 159.548Z" fill="black"/>
<path d="M137.158 170.289C137.216 174.346 140.551 177.588 144.609 177.531C148.666 177.473 151.909 174.138 151.851 170.081C151.793 166.024 148.458 162.781 144.4 162.839C140.343 162.896 137.101 166.232 137.158 170.289Z" fill="#843E3E"/>
<path d="M146.294 156.911C147.081 155.44 148.047 154.064 149.164 152.824" stroke="black" stroke-width="2" stroke-miterlimit="10" stroke-linecap="round" stroke-linejoin="round"/>
<path d="M124.735 302.885C124.735 302.885 125.581 320.295 132.741 326.71C139.902 333.125 162.108 327.748 165.726 326.3C169.344 324.852 169.688 321.222 162.776 319.081C158.865 317.87 152.901 304.814 152.092 300.034C151.283 295.254 124.735 302.885 124.735 302.885Z" fill="#AA5C54"/>
<path d="M132.741 326.71C139.902 333.125 162.108 327.748 165.726 326.3C169.344 324.852 169.688 321.222 162.776 319.081C158.865 317.87 152.901 304.814 152.092 300.034" stroke="black" stroke-width="0.75" stroke-miterlimit="10" stroke-linecap="round" stroke-linejoin="round"/>
<path d="M148.815 223.498C145.684 198.63 140.37 186.234 119.907 198.217C117.199 199.802 114.475 202.199 111.798 205.207L110.934 222.602C110.934 222.602 102.908 282.184 120.888 310.293L159.359 303.87C159.359 303.87 151.946 248.367 148.815 223.498Z" fill="#B4A6EE"/>
<path d="M120.066 295.014L124.434 309.701" stroke="black" stroke-width="0.75" stroke-miterlimit="10" stroke-linecap="round" stroke-linejoin="round"/>
<path d="M129.344 293.892L132.766 308.31" stroke="black" stroke-width="0.75" stroke-miterlimit="10" stroke-linecap="round" stroke-linejoin="round"/>
<path d="M137.39 292.833L140.369 306.634" stroke="black" stroke-width="0.75" stroke-miterlimit="10" stroke-linecap="round" stroke-linejoin="round"/>
<path d="M145.975 291.704L148.485 305.685" stroke="black" stroke-width="0.75" stroke-miterlimit="10" stroke-linecap="round" stroke-linejoin="round"/>
<path d="M152.606 290.831L154.827 304.627" stroke="black" stroke-width="0.75" stroke-miterlimit="10" stroke-linecap="round" stroke-linejoin="round"/>
<path d="M154.177 264.796C153.855 264.711 153.523 264.65 153.175 264.65C151.01 264.65 149.254 266.405 149.254 268.571V269.218H148.607C146.442 269.218 144.686 270.973 144.686 273.139C144.686 275.304 146.441 277.06 148.607 277.06H149.254V277.707C149.254 279.872 151.009 281.628 153.175 281.628C154.405 281.628 155.489 281.05 156.208 280.164C155.572 275.367 154.882 270.148 154.177 264.796Z" fill="#F7D202"/>
<path d="M153.175 275.939C154.136 275.939 154.982 275.454 155.487 274.717C155.327 273.505 155.164 272.274 155 271.03C154.509 270.605 153.876 270.338 153.175 270.338C151.628 270.338 150.374 271.592 150.374 273.139C150.374 274.685 151.628 275.939 153.175 275.939Z" fill="#FEFFFF"/>
<path d="M141.204 292.331C140.955 290.405 139.327 288.912 137.334 288.912H136.687V288.265C136.687 286.1 134.932 284.344 132.766 284.344C130.6 284.344 128.845 286.099 128.845 288.265V288.912H128.198C126.033 288.912 124.277 290.667 124.277 292.833C124.277 293.434 124.423 293.998 124.665 294.507L141.204 292.331Z" fill="#F7D202"/>
<path d="M135.542 293.076C135.549 292.995 135.567 292.916 135.567 292.833C135.567 291.286 134.313 290.032 132.766 290.032C131.219 290.032 129.965 291.286 129.965 292.833C129.965 293.169 130.034 293.488 130.143 293.787L135.542 293.076Z" fill="#FEFFFF"/>
<path d="M117.163 260.967H116.516V260.32C116.516 258.155 114.76 256.399 112.595 256.399C111.145 256.399 109.894 257.195 109.215 258.365C109.324 262.922 109.578 267.655 110.038 272.405C110.726 273.002 111.613 273.376 112.595 273.376C114.76 273.376 116.516 271.621 116.516 269.455V268.808H117.163C119.328 268.808 121.084 267.053 121.084 264.887C121.084 262.721 119.328 260.967 117.163 260.967Z" fill="#F7D202"/>
<path d="M109.795 264.888C109.795 266.435 111.049 267.689 112.596 267.689C114.143 267.689 115.397 266.435 115.397 264.888C115.397 263.341 114.143 262.087 112.596 262.087C111.049 262.088 109.795 263.342 109.795 264.888Z" fill="#FEFFFF"/>
<path d="M132.405 238.707H133.052V238.06C133.052 235.895 134.807 234.139 136.973 234.139C139.138 234.139 140.894 235.894 140.894 238.06V238.707H141.541C143.706 238.707 145.462 240.462 145.462 242.628C145.462 244.793 143.707 246.549 141.541 246.549H140.894V247.196C140.894 249.361 139.139 251.117 136.973 251.117C134.808 251.117 133.052 249.362 133.052 247.196V246.549H132.405C130.24 246.549 128.484 244.793 128.484 242.628C128.484 240.462 130.239 238.707 132.405 238.707Z" fill="#F7D202"/>
<path d="M134.172 242.627C134.172 244.174 135.426 245.428 136.973 245.428C138.52 245.428 139.773 244.174 139.773 242.627C139.773 241.08 138.519 239.826 136.973 239.826C135.426 239.827 134.172 241.081 134.172 242.627Z" fill="#FEFFFF"/>
<path d="M107.73 218.1H108.377V217.453C108.377 215.288 110.132 213.532 112.298 213.532C114.464 213.532 116.219 215.287 116.219 217.453V218.1H116.866C119.031 218.1 120.787 219.855 120.787 222.021C120.787 224.187 119.032 225.942 116.866 225.942H116.219V226.589C116.219 228.754 114.464 230.51 112.298 230.51C110.132 230.51 108.377 228.755 108.377 226.589V225.942H107.73C105.565 225.942 103.809 224.187 103.809 222.021C103.809 219.855 105.565 218.1 107.73 218.1Z" fill="#F7D202"/>
<path d="M112.298 224.821C113.845 224.821 115.099 223.567 115.099 222.02C115.099 220.473 113.845 219.219 112.298 219.219C110.751 219.219 109.497 220.473 109.497 222.02C109.497 223.567 110.751 224.821 112.298 224.821Z" fill="#FEFFFF"/>
<path d="M137.171 204.964H137.818V205.611C137.818 207.776 139.573 209.532 141.739 209.532C143.625 209.532 145.198 208.2 145.573 206.425C143.862 200.76 141.548 196.762 138.173 194.863C137.95 195.356 137.818 195.899 137.818 196.475V197.122H137.171C135.006 197.122 133.25 198.877 133.25 201.043C133.25 203.209 135.005 204.964 137.171 204.964Z" fill="#F7D202"/>
<path d="M141.738 203.844C142.771 203.844 143.662 203.279 144.148 202.448C143.463 200.844 142.695 199.442 141.831 198.253C141.799 198.252 141.77 198.244 141.737 198.244C140.19 198.244 138.937 199.498 138.937 201.045C138.938 202.59 140.191 203.844 141.738 203.844Z" fill="#FEFFFF"/>
<path d="M110.934 222.602C110.934 222.602 102.908 282.184 120.888 310.293L159.359 303.87C159.359 303.87 151.946 248.367 148.815 223.498C145.684 198.63 140.37 186.234 119.907 198.217C117.199 199.803 114.475 202.199 111.798 205.207" stroke="black" stroke-width="0.75" stroke-miterlimit="10" stroke-linecap="round" stroke-linejoin="round"/>
<path d="M115.807 295.673L156.762 290.285" stroke="black" stroke-width="0.75" stroke-miterlimit="10" stroke-linecap="round" stroke-linejoin="round"/>
<path d="M88.6856 339.652C87.7318 339.866 86.7543 340.01 85.7529 340.081C84.7753 340.176 83.8096 340.224 82.8559 340.224C81.926 340.224 81.1988 340.2 80.6743 340.153C80.1736 340.105 79.506 339.986 78.6714 339.795C77.8369 339.604 77.074 339.342 76.3825 339.008C75.691 338.674 74.9519 338.186 74.1651 337.542C73.4021 336.898 72.7583 336.135 72.2338 335.253C71.0178 333.202 70.4098 330.556 70.4098 327.313C70.4098 325.143 70.7436 323.224 71.4112 321.555C72.1027 319.886 72.9252 318.598 73.879 317.692C74.8565 316.786 75.9652 316.059 77.2051 315.511C79.2079 314.605 81.2227 314.152 83.2493 314.152C86.1582 314.152 88.2445 314.39 89.5081 314.867C90.0804 315.082 90.593 315.415 91.046 315.868C91.499 316.321 91.7256 316.977 91.7256 317.835C91.7256 318.694 91.511 319.779 91.0818 321.09C90.6765 322.401 90.0804 323.057 89.2936 323.057C89.0551 323.057 88.1729 322.866 86.647 322.485C85.121 322.103 84.0838 321.913 83.5354 321.913C82.7009 321.913 81.9856 322.378 81.3896 323.307C80.8173 324.237 80.5312 325.561 80.5312 327.277C80.5312 328.994 80.7816 330.329 81.2823 331.283C81.8068 332.237 82.4863 332.714 83.3209 332.714C83.9169 332.714 84.9899 332.475 86.5397 331.998C88.1133 331.498 89.0313 331.247 89.2936 331.247C90.0327 331.247 90.6049 331.927 91.0103 333.286C91.4394 334.645 91.654 335.742 91.654 336.576C91.654 337.411 91.3918 338.078 90.8672 338.579C90.3665 339.056 89.6393 339.413 88.6856 339.652Z" fill="#9281FF"/>
</svg>
