<svg width="14" height="14" viewBox="0 0 14 14" fill="none" xmlns="http://www.w3.org/2000/svg">
<path d="M6.88976 3.92408C7.48126 2.86358 7.77642 2.33333 8.21917 2.33333C8.66076 2.33333 8.95651 2.86358 9.54742 3.92408L9.70026 4.19824C9.86826 4.49983 9.95226 4.65033 10.0835 4.74949C10.2142 4.84866 10.3775 4.88599 10.7036 4.95949L11.0011 5.02716C12.1485 5.28674 12.7219 5.41624 12.859 5.85549C12.9961 6.29474 12.6041 6.75208 11.8218 7.66733L11.6194 7.90416C11.3972 8.16374 11.2858 8.29383 11.2356 8.45483C11.1854 8.61583 11.2023 8.78908 11.2356 9.13616L11.2665 9.45174C11.3849 10.6732 11.4444 11.2834 11.0868 11.5547C10.7293 11.8259 10.192 11.5786 9.11692 11.0839L8.83926 10.9556C8.53359 10.8156 8.38076 10.745 8.21917 10.745C8.05701 10.745 7.90417 10.815 7.59909 10.9556L7.32084 11.0839C6.24634 11.5786 5.70909 11.8259 5.35151 11.5547C4.99392 11.2834 5.05342 10.6732 5.17126 9.45174L5.20217 9.13616C5.23542 8.78908 5.25234 8.61583 5.20217 8.45483C5.15201 8.29383 5.04117 8.16433 4.81892 7.90416L4.61651 7.66733C3.83251 6.75208 3.44167 6.29416 3.57876 5.85549C3.71584 5.41683 4.28926 5.28674 5.43667 5.02716L5.73417 4.95949C6.06026 4.88599 6.22301 4.84866 6.35426 4.74949C6.48551 4.65033 6.56892 4.49983 6.73692 4.19824L6.88976 3.92408Z" stroke="#494949" stroke-width="0.8"/>
<path d="M1.21866 9.33333C1.54476 9.07936 1.92364 8.90172 2.32744 8.81349C2.73125 8.72526 3.14969 8.72868 3.552 8.8235M1.21866 6.125C1.802 5.83333 1.97116 5.86833 2.38533 5.83333M1.16675 3.27192L1.28808 3.20075C2.57491 2.44708 3.93758 2.24408 5.22266 2.6145L5.344 2.6495" stroke="#494949" stroke-width="0.8" stroke-linecap="round"/>
</svg>
