<svg width="14" height="12" viewBox="0 0 14 12" fill="none" xmlns="http://www.w3.org/2000/svg">
<path d="M6.88976 2.92408C7.48126 1.86358 7.77642 1.33333 8.21917 1.33333C8.66076 1.33333 8.95651 1.86358 9.54742 2.92408L9.70026 3.19825C9.86826 3.49983 9.95226 3.65033 10.0835 3.7495C10.2142 3.84867 10.3775 3.886 10.7036 3.9595L11.0011 4.02717C12.1485 4.28675 12.7219 4.41625 12.859 4.8555C12.9961 5.29475 12.6041 5.75208 11.8218 6.66733L11.6194 6.90417C11.3972 7.16375 11.2858 7.29383 11.2356 7.45483C11.1854 7.61583 11.2023 7.78908 11.2356 8.13616L11.2665 8.45175C11.3849 9.67325 11.4444 10.2834 11.0868 10.5547C10.7293 10.8259 10.192 10.5786 9.11692 10.0839L8.83926 9.95558C8.53359 9.81558 8.38076 9.745 8.21917 9.745C8.05701 9.745 7.90417 9.815 7.59909 9.95558L7.32084 10.0839C6.24634 10.5786 5.70909 10.8259 5.35151 10.5547C4.99392 10.2834 5.05342 9.67325 5.17126 8.45175L5.20217 8.13616C5.23542 7.78908 5.25234 7.61583 5.20217 7.45483C5.15201 7.29383 5.04117 7.16433 4.81892 6.90417L4.61651 6.66733C3.83251 5.75208 3.44167 5.29417 3.57876 4.8555C3.71584 4.41683 4.28926 4.28675 5.43667 4.02717L5.73417 3.9595C6.06026 3.886 6.22301 3.84867 6.35426 3.7495C6.48551 3.65033 6.56892 3.49983 6.73692 3.19825L6.88976 2.92408Z" stroke="#FC715A" stroke-width="0.8"/>
<path d="M1.21866 8.33333C1.54476 8.07935 1.92364 7.90171 2.32744 7.81348C2.73125 7.72525 3.14969 7.72867 3.552 7.8235M1.21866 5.125C1.802 4.83333 1.97116 4.86833 2.38533 4.83333M1.16675 2.27191L1.28808 2.20075C2.57491 1.44708 3.93758 1.24408 5.22266 1.6145L5.344 1.6495" stroke="#FC715A" stroke-width="0.8" stroke-linecap="round"/>
</svg>
