<svg width="130" height="150" viewBox="0 0 130 150" fill="none" xmlns="http://www.w3.org/2000/svg">
<path d="M90.6719 95.0274H45.7815V156.834H90.6719V95.0274Z" fill="#E3DFF7" stroke="black" stroke-width="0.75" stroke-miterlimit="10" stroke-linecap="round" stroke-linejoin="round"/>
<path d="M89.5989 147.98C89.5989 147.98 89.5773 158.623 93.9296 162.084C98.2824 165.545 110.912 169.622 116.236 170.056C121.561 170.49 123.961 166.41 123.472 162.161C122.983 157.912 107.293 148.306 107.293 148.306L89.5989 147.98Z" fill="#9281FF"/>
<path d="M89.5989 147.98C89.5989 147.98 89.5773 158.623 93.9296 162.084C98.2824 165.545 110.912 169.622 116.236 170.056C121.561 170.49 123.961 166.41 123.472 162.161C123.331 160.935 121.925 159.263 119.995 157.505" stroke="black" stroke-width="0.75" stroke-miterlimit="10" stroke-linecap="round" stroke-linejoin="round"/>
<path d="M96.742 85.1445C96.742 85.1445 106.494 87.8303 108.455 90.0179C110.416 92.2054 115.251 93.4166 118.649 103.428C122.048 113.44 112.79 157.26 112.79 157.26H94.3246L93.5608 110.939L74.1338 94.0998L96.742 85.1445Z" fill="#FEFFFF"/>
<path d="M108.126 115.074C110.503 112.79 110.503 109.087 108.126 106.802C105.749 104.518 101.896 104.518 99.5189 106.802C97.1421 109.087 97.1421 112.79 99.5189 115.074C101.896 117.359 105.749 117.359 108.126 115.074Z" fill="#F7D202"/>
<path d="M111.814 92.72C111.548 93.3774 111.396 94.0899 111.396 94.8378C111.396 98.068 114.121 100.687 117.482 100.687C117.519 100.687 117.554 100.682 117.59 100.682C115.735 96.4296 113.621 94.2054 111.814 92.72Z" fill="#F7D202"/>
<path d="M98.5093 91.108C98.5093 88.7726 97.0817 86.7631 95.0231 85.8251L86.7051 89.12C86.471 89.7416 86.3369 90.4088 86.3369 91.108C86.3369 94.3386 89.062 96.9572 92.4231 96.9572C95.7842 96.9572 98.5093 94.3386 98.5093 91.108Z" fill="#F7D202"/>
<path d="M116.711 120.82C113.35 120.82 110.625 123.439 110.625 126.669C110.625 129.9 113.35 132.519 116.711 132.519C116.889 132.519 117.064 132.507 117.238 132.493C117.809 128.695 118.327 124.821 118.713 121.15C118.085 120.94 117.414 120.82 116.711 120.82Z" fill="#F7D202"/>
<path d="M115.249 144.504C114.803 144.404 114.341 144.346 113.864 144.346C110.502 144.346 107.777 146.965 107.777 150.195C107.777 153.16 110.076 155.604 113.053 155.986C113.463 153.98 114.306 149.758 115.249 144.504Z" fill="#F7D202"/>
<path d="M96.742 85.1445C96.742 85.1445 106.494 87.8303 108.455 90.0179C110.416 92.2054 115.251 93.4166 118.649 103.428C122.048 113.44 112.79 157.26 112.79 157.26H94.3246L93.5608 110.939L74.1338 94.0998L96.742 85.1445Z" stroke="black" stroke-width="0.75" stroke-miterlimit="10" stroke-linecap="round" stroke-linejoin="round"/>
<path d="M103.824 114.641C97.8008 100.434 81.7479 94.8373 81.7479 94.8373L77.727 92.3442C77.727 92.3442 61.667 89.1057 57.8915 101.025C54.1164 112.945 79.8579 124.154 79.8579 124.154C80.6885 127.525 89.1527 167.895 89.1527 167.895L118.273 163.929C118.273 163.929 109.848 128.848 103.824 114.641Z" fill="#FEFFFF"/>
<path d="M105.155 154.744C107.532 152.46 107.532 148.757 105.155 146.472C102.778 144.188 98.9247 144.188 96.5479 146.472C94.1712 148.757 94.1712 152.46 96.5479 154.744C98.9247 157.029 102.778 157.029 105.155 154.744Z" fill="#F7D202"/>
<path d="M99.8533 122.599C100.63 119.456 98.6088 116.303 95.3386 115.556C92.0683 114.81 88.7876 116.753 88.0108 119.895C87.234 123.038 89.2553 126.191 92.5255 126.938C95.7958 127.684 99.0765 125.742 99.8533 122.599Z" fill="#F7D202"/>
<path d="M72.0321 104.7C75.142 103.474 76.629 100.057 75.3534 97.0685C74.0778 94.0797 70.5226 92.6506 67.4127 93.8766C64.3028 95.1025 62.8158 98.5193 64.0915 101.508C65.3671 104.497 68.9222 105.926 72.0321 104.7Z" fill="#F7D202"/>
<path d="M95.7012 103.45C92.275 100.317 88.6614 98.1201 85.9668 96.7304C84.8415 97.7917 84.1418 99.2684 84.1418 100.903C84.1418 104.134 86.8665 106.753 90.2281 106.753C92.6388 106.753 94.7153 105.403 95.7012 103.45Z" fill="#F7D202"/>
<path d="M111.041 141.693C111.531 141.693 112.005 141.632 112.462 141.526C111.434 137.808 110.333 133.959 109.213 130.264C106.745 131.01 104.954 133.226 104.954 135.844C104.954 139.074 107.679 141.693 111.041 141.693Z" fill="#F7D202"/>
<path d="M73.4273 109.867C70.0657 109.867 67.3411 112.486 67.3411 115.716C67.3411 116.195 67.4074 116.658 67.5205 117.103C69.9267 118.83 72.4051 120.314 74.5041 121.468C77.3512 120.979 79.5135 118.592 79.5135 115.716C79.5135 112.486 76.7884 109.867 73.4273 109.867Z" fill="#F7D202"/>
<path d="M91.9491 142.968C91.9491 139.737 89.224 137.118 85.8629 137.118C84.7573 137.118 83.7235 137.406 82.8301 137.901C83.5638 141.357 84.3586 145.116 85.13 148.77C85.3709 148.798 85.6144 148.817 85.8629 148.817C89.224 148.817 91.9491 146.198 91.9491 142.968Z" fill="#F7D202"/>
<path d="M81.7478 94.8373C81.7478 94.8373 97.8006 100.434 103.824 114.641C109.847 128.848 118.274 163.929 118.274 163.929L89.153 167.895C89.153 167.895 80.6888 127.525 79.8582 124.155C79.8582 124.155 54.1163 112.945 57.8918 101.026C61.6669 89.1066 77.7274 92.3446 77.7274 92.3446" stroke="black" stroke-width="0.75" stroke-miterlimit="10" stroke-linecap="round" stroke-linejoin="round"/>
<path d="M89.4556 93.308C89.4556 93.308 88.7815 96.799 88.5972 98.1938" stroke="black" stroke-width="0.75" stroke-miterlimit="10" stroke-linecap="round" stroke-linejoin="round"/>
<path d="M92.6375 28.2258C94.4024 26.143 94.4396 23.9429 93.9135 22.2938C92.7537 18.6588 89.7653 19.9075 89.8411 12.7388C89.9169 5.57018 79.408 -0.785106 72.4907 0.442933C72.4907 0.442933 64.1673 1.06751 62.7276 9.38232C61.2879 17.6976 62.4558 16.0277 58.9611 18.8584C56.1709 21.1183 55.2372 25.7443 57.9771 29.3555C54.2339 31.2008 51.6707 34.944 51.6707 39.2648C51.6707 45.4136 56.8572 50.3977 63.2546 50.3977C69.6526 50.3977 85.8709 42.1519 90.0066 42.1519C94.1418 42.1519 97.4944 38.9298 97.4944 34.9556C97.4944 31.8732 95.473 29.2504 92.6375 28.2258Z" fill="black"/>
<path d="M88.2071 34.4474C88.2071 34.4474 101.788 43.1782 111.862 59.7444C121.936 76.3111 101.935 81.5237 93.8457 77.6581C85.757 73.7925 88.2071 34.4474 88.2071 34.4474Z" fill="#F4A8FF"/>
<path d="M104.398 83.3341C104.251 83.2518 104.017 83.1729 103.709 83.1009L103.711 83.1005C103.711 83.1005 105.243 77.8155 100.614 58.1867C95.9848 38.5574 88.2073 34.447 88.2073 34.447C88.2073 34.447 74.4041 24.5378 59.6335 52.6654C44.8629 80.7931 59.2204 108.197 59.2204 108.197C59.2204 108.197 68.1578 95.8507 87.6749 90.564C105.346 85.7772 108.246 89.6583 108.636 90.4355C108.258 89.5463 105.932 84.1906 104.398 83.3341Z" fill="#F4A8FF"/>
<path d="M108.636 90.4359C108.671 90.517 108.691 90.5644 108.691 90.5644C108.691 90.5644 108.677 90.5174 108.636 90.4359Z" fill="#F4A8FF"/>
<path d="M102.672 83.6613C102.672 83.6613 103.37 84.0044 104.689 86.8686" stroke="#FEFFFF" stroke-width="0.75" stroke-miterlimit="10" stroke-linecap="round" stroke-linejoin="round"/>
<path d="M98.4775 83.6613C98.4775 83.6613 99.3185 84.9505 100.08 86.9113" stroke="#FEFFFF" stroke-width="0.75" stroke-miterlimit="10" stroke-linecap="round" stroke-linejoin="round"/>
<path d="M91.8909 84.4367C91.8909 84.4367 93.5723 86.8954 94.2105 87.9096" stroke="#FEFFFF" stroke-width="0.75" stroke-miterlimit="10" stroke-linecap="round" stroke-linejoin="round"/>
<path d="M86.105 85.3914C86.105 85.3914 87.0778 87.0893 87.6747 89.1898" stroke="#FEFFFF" stroke-width="0.75" stroke-miterlimit="10" stroke-linecap="round" stroke-linejoin="round"/>
<path d="M80.8252 87.7501C80.8252 87.7501 81.3024 88.9657 81.9631 90.5644" stroke="#FEFFFF" stroke-width="0.75" stroke-miterlimit="10" stroke-linecap="round" stroke-linejoin="round"/>
<path d="M74.4353 90.0717L75.6185 93.1688" stroke="#FEFFFF" stroke-width="0.75" stroke-miterlimit="10" stroke-linecap="round" stroke-linejoin="round"/>
<path d="M68.7798 93.308L69.9567 96.3667" stroke="#FEFFFF" stroke-width="0.75" stroke-miterlimit="10" stroke-linecap="round" stroke-linejoin="round"/>
<path d="M62.8735 96.3666L64.4837 100.617" stroke="#FEFFFF" stroke-width="0.75" stroke-miterlimit="10" stroke-linecap="round" stroke-linejoin="round"/>
<path d="M96.7222 46.1968C98.1022 49.3425 99.4563 53.2797 100.613 58.1871C105.242 77.8163 103.71 83.1009 103.71 83.1009" stroke="black" stroke-width="0.75" stroke-miterlimit="10" stroke-linecap="round" stroke-linejoin="round"/>
<path d="M72.0497 88.2949C90.3998 81.8323 102.724 82.4 104.398 83.3345C106.072 84.269 108.69 90.5648 108.69 90.5648C108.69 90.5648 107.192 85.2781 87.6747 90.5648C68.1576 95.8516 59.2202 108.198 59.2202 108.198C59.2202 108.198 44.8631 80.7939 59.6333 52.6663C68.8649 35.0862 77.7184 32.3646 83.0605 32.7957" stroke="black" stroke-width="0.75" stroke-miterlimit="10" stroke-linecap="round" stroke-linejoin="round"/>
<path d="M76.5198 68.8506C76.5198 68.8506 79.0646 63.3497 89.2174 62.9484C99.3702 62.5471 92.7588 75.0995 92.7588 75.0995L80.5882 78.5116L76.5198 68.8506Z" fill="#AA5C54"/>
<path d="M78.7173 64.3725C78.7173 64.3725 74.7368 65.5023 58.7714 67.9248L64.4764 66.842L69.1161 56.5836L73.3307 38.5941L68.0101 34.6569C68.0101 34.6569 32.9438 53.6607 38.0034 78.3323C42.9616 102.51 78.2697 87.4811 85.8409 77.1698L78.7173 64.3725Z" fill="#F4A8FF"/>
<path d="M47.2122 90.6869C59.1016 96.3581 80.0804 85.0152 85.841 77.1698L78.7178 64.3726C78.7178 64.3726 75.2661 65.3523 61.8993 67.4433" stroke="black" stroke-width="0.75" stroke-miterlimit="10" stroke-linecap="round" stroke-linejoin="round"/>
<path d="M71.947 67.4243L79.7088 80.8819" stroke="black" stroke-width="0.75" stroke-miterlimit="10" stroke-linecap="round" stroke-linejoin="round"/>
<path d="M73.605 68.1166L78.8215 66.6442" stroke="#FEFFFF" stroke-width="0.75" stroke-miterlimit="10" stroke-linecap="round" stroke-linejoin="round"/>
<path d="M75.6526 72.0654L79.7089 69.8731" stroke="#FEFFFF" stroke-width="0.75" stroke-miterlimit="10" stroke-linecap="round" stroke-linejoin="round"/>
<path d="M78.1587 75.8124L81.8705 73.6956" stroke="#FEFFFF" stroke-width="0.75" stroke-miterlimit="10" stroke-linecap="round" stroke-linejoin="round"/>
<path d="M80.5884 79.6573L83.5449 77.1698" stroke="#FEFFFF" stroke-width="0.75" stroke-miterlimit="10" stroke-linecap="round" stroke-linejoin="round"/>
<path d="M69.1158 56.5836L64.4761 66.842" stroke="black" stroke-width="0.75" stroke-miterlimit="10" stroke-linecap="round" stroke-linejoin="round"/>
<path d="M77.7523 28.362C77.7523 28.362 86.8623 26.5214 89.5435 32.8797C91.5263 37.5815 85.7846 42.5049 74.9258 41.9458C64.0671 41.3868 63.1382 36.6333 63.5284 33.7535C64.0267 30.0762 68.1171 26.6891 77.7523 28.362Z" fill="#F4A8FF"/>
<path d="M67.7026 28.8348C69.9819 27.9012 73.2659 27.5831 77.7523 28.362C77.7523 28.362 82.5307 27.3964 86.1846 29.2797" stroke="black" stroke-width="0.75" stroke-miterlimit="10" stroke-linecap="round" stroke-linejoin="round"/>
<path d="M89.9217 34.4474C90.1872 38.6083 84.5782 42.4433 74.9255 41.9463C64.9808 41.4342 63.3643 37.4039 63.4626 34.5172" stroke="black" stroke-width="0.75" stroke-miterlimit="10" stroke-linecap="round" stroke-linejoin="round"/>
<path d="M71.6283 35.0627L80.8911 34.7518L80.3044 18.6047L71.0416 18.9156L71.6283 35.0627Z" fill="#AA5C54" stroke="black" stroke-width="0.75" stroke-miterlimit="10" stroke-linecap="round" stroke-linejoin="round"/>
<path d="M66.0538 19.204C66.191 17.1786 68.0249 15.6441 70.1495 15.7768C70.9864 15.829 71.7412 16.135 72.3431 16.6066L72.4934 14.3889C72.7315 10.8733 75.5549 8.16117 78.768 8.36204L83.6006 8.6642C86.8137 8.86507 89.2477 11.9061 89.01 15.4216L88.5225 22.6213C88.2843 26.1374 85.461 28.8495 82.2479 28.6482L79.4533 28.4736L71.9005 22.5869C71.2479 22.9645 70.4729 23.1636 69.653 23.1123C67.5284 22.9795 65.917 21.2295 66.0538 19.204Z" fill="#AA5C54"/>
<path d="M71.9008 22.5869C71.2482 22.9645 70.4732 23.1636 69.6533 23.1123C67.5283 22.9795 65.9168 21.2295 66.0541 19.204C66.1913 17.1786 68.0252 15.6441 70.1498 15.7768C70.9867 15.829 71.7415 16.135 72.3434 16.6066L72.4937 14.3889C72.7318 10.8733 75.5552 8.16117 78.7683 8.36204L83.6009 8.6642C86.814 8.86507 89.248 11.9061 89.0103 15.4216L88.5228 22.6213C88.2846 26.1369 85.4613 28.849 82.2482 28.6482L79.4536 28.4736" stroke="black" stroke-width="0.75" stroke-miterlimit="10" stroke-linecap="round" stroke-linejoin="round"/>
<path d="M71.9497 20.0592C71.9497 20.0592 72.2879 17.5786 69.6072 17.6889" stroke="black" stroke-width="0.75" stroke-miterlimit="10" stroke-linecap="round" stroke-linejoin="round"/>
<path d="M90.9521 8.00042C88.9441 3.95121 84.8067 0.944254 80.2059 0.190361C75.6051 -0.563531 70.6644 0.956324 67.3742 4.13742C67.3742 4.13742 64.8585 8.54698 64.4499 11.0263C64.1212 13.0221 66.2359 15.8984 67.0737 16.9454C67.8352 16.1635 68.9453 15.7023 70.15 15.7773C70.9869 15.8294 71.7417 16.135 72.3436 16.607C72.3436 16.607 72.6109 16.9532 72.9159 17.4273C73.2465 17.2747 73.5519 17.0144 73.9035 16.8941C74.3834 16.7299 74.9144 16.8441 75.4208 16.7894C76.4421 16.679 77.2444 15.9053 77.8432 15.1023C78.951 13.6169 79.6731 11.8677 79.9269 10.0569L80.1812 10.1017C81.2164 11.735 82.3646 13.4652 84.1945 14.2169C84.9556 14.5294 85.7849 14.6479 86.6034 14.7635C87.473 14.8863 88.3431 15.0092 89.2128 15.132C89.5922 15.1859 89.9891 15.238 90.352 15.1182C90.8198 14.9639 91.1427 14.5518 91.3674 14.1285C92.3698 12.238 91.902 9.91554 90.9521 8.00042Z" fill="black"/>
<path d="M83.7387 30.3193C83.7387 30.3193 78.0705 32.0418 69.8704 29.8297C69.8704 29.8297 67.9939 34.1509 72.204 36.3289C76.4146 38.5074 87.4299 35.2578 83.7387 30.3193Z" fill="#F4A8FF"/>
<path d="M83.7383 30.3193C83.7383 30.3193 78.0701 32.0418 69.8701 29.8297" stroke="black" stroke-width="0.75" stroke-miterlimit="10" stroke-linecap="round" stroke-linejoin="round"/>
<path d="M86.4718 37.8802C86.222 35.7242 85.3137 33.6422 83.8879 31.9603" stroke="#FEFFFF" stroke-width="0.75" stroke-miterlimit="10" stroke-linecap="round" stroke-linejoin="round"/>
<path d="M79.7282 32.5491C79.7228 34.9629 79.8587 37.3776 80.1354 39.7768" stroke="#FEFFFF" stroke-width="0.75" stroke-miterlimit="10" stroke-linecap="round" stroke-linejoin="round"/>
<path d="M74.3485 32.4271C73.6111 34.875 73.1572 37.4018 72.9976 39.9458" stroke="#FEFFFF" stroke-width="0.75" stroke-miterlimit="10" stroke-linecap="round" stroke-linejoin="round"/>
<path d="M70.7801 31.8978C69.0516 33.2664 67.6635 35.0293 66.762 36.9996" stroke="#FEFFFF" stroke-width="0.75" stroke-miterlimit="10" stroke-linecap="round" stroke-linejoin="round"/>
<path d="M68.2205 30.5939C67.1948 31.0305 66.2695 31.6849 65.5312 32.4965" stroke="#FEFFFF" stroke-width="0.75" stroke-miterlimit="10" stroke-linecap="round" stroke-linejoin="round"/>
<path d="M88.0922 32.8539C87.6159 31.9051 86.8768 31.0801 85.9717 30.4861" stroke="#FEFFFF" stroke-width="0.75" stroke-miterlimit="10" stroke-linecap="round" stroke-linejoin="round"/>
<path d="M78.9613 18.0825C78.9223 18.6609 79.378 19.1601 79.9799 19.1976C80.5818 19.2351 81.1011 18.7971 81.1402 18.2187C81.1792 17.6407 80.7235 17.1411 80.1216 17.1036C79.5202 17.0656 79.0003 17.504 78.9613 18.0825Z" fill="black"/>
<path d="M86.1036 18.3747C86.07 18.8683 86.4593 19.2946 86.9728 19.3265C87.4863 19.3588 87.9299 18.9846 87.9631 18.4907C87.9967 17.9971 87.6074 17.5713 87.0939 17.5389C86.5804 17.5075 86.1372 17.8812 86.1036 18.3747Z" fill="black"/>
<path d="M83.7588 17.3308L85.2617 20.1951L83.2524 21.2063L83.7588 17.3308Z" fill="#843E3E"/>
<path d="M78.3738 16.5894L80.2929 15.9876" stroke="black" stroke-width="0.75" stroke-miterlimit="10" stroke-linecap="round" stroke-linejoin="round"/>
<path d="M86.3994 16.4756L88.1728 16.8415" stroke="black" stroke-width="0.75" stroke-miterlimit="10" stroke-linecap="round" stroke-linejoin="round"/>
<path d="M81.7924 23.7209C81.7323 24.611 82.4342 25.3792 83.3599 25.4374C84.2861 25.4951 85.0853 24.8205 85.1459 23.9309L81.7924 23.7209Z" stroke="black" stroke-width="0.75" stroke-miterlimit="10" stroke-linecap="round" stroke-linejoin="round"/>
<path d="M74.3748 20.9459C74.4201 22.1907 75.5068 23.1649 76.8025 23.1213C78.0978 23.0778 79.1114 22.0334 79.0661 20.7881C79.0208 19.5433 77.9341 18.5691 76.6384 18.6126C75.3431 18.6562 74.3295 19.7006 74.3748 20.9459Z" fill="#843E3E"/>
<path d="M86.2337 21.7239C86.1929 20.6019 87.1065 19.6601 88.274 19.6209C88.3825 19.6174 88.4888 19.6248 88.5933 19.6364L88.3919 22.6132C88.3673 22.9787 88.3085 23.333 88.2296 23.6783C87.1487 23.621 86.2723 22.7834 86.2337 21.7239Z" fill="#843E3E"/>
<path d="M107.875 80.4444C108.407 81.3069 109.091 81.9642 109.802 82.4332L112.48 81.9737C112.48 81.9737 111.626 79.2163 111.199 78.9659C110.772 78.7155 107.875 80.4444 107.875 80.4444Z" fill="#AA5C54" stroke="black" stroke-width="0.75" stroke-miterlimit="10" stroke-linecap="round" stroke-linejoin="round"/>
<path d="M98.3471 55.5021C98.3471 55.5021 99.864 49.6861 102.615 49.3162C111.329 48.1451 121.49 53.3482 125.485 54.9112L121.639 60.9863C121.639 60.9863 97.5385 57.4405 97.5752 57.4586C97.6125 57.4767 98.3471 55.5021 98.3471 55.5021Z" fill="#FEFFFF" stroke="black" stroke-width="0.75" stroke-miterlimit="10" stroke-linecap="round" stroke-linejoin="round"/>
<path d="M90.6884 58.7526C90.6884 58.7526 94.6604 53.462 95.6619 53.1219C96.6634 52.7823 118.503 53.9405 125.485 54.9107C125.485 54.9107 135.761 49.102 136.347 49.3244C136.932 49.5469 137.779 50.0572 137.589 51.1917C137.399 52.3262 127.113 63.0109 127.113 63.0109C127.113 63.0109 89.2187 63.5837 90.6884 58.7526Z" fill="#FEFFFF" stroke="black" stroke-width="0.75" stroke-miterlimit="10" stroke-linecap="round" stroke-linejoin="round"/>
<path d="M123.408 56.6216C123.408 56.6216 123.324 55.4685 123.502 55.5026C123.68 55.5366 127.237 55.6332 127.552 55.5935C127.867 55.5539 125.609 57.3996 125.244 57.3742C124.88 57.3483 123.408 56.6216 123.408 56.6216Z" fill="black"/>
<path d="M103.824 80.2784L102.81 80.7879L75.4073 84.2621C75.4073 84.2621 70.5778 84.9776 72.0503 81.9832C73.5227 78.9887 91.1844 56.3474 91.1844 56.3474C91.1844 56.3474 91.8836 54.0887 97.4038 54.3654C102.924 54.6422 123.381 55.6569 123.381 55.6569L103.824 80.2784Z" fill="#9281FF"/>
<path d="M124.449 57.741L127.441 55.6569C127.441 55.6569 136.309 50.6555 138.253 50.6594C140.555 50.6641 117.93 79.9995 117.93 79.9995L106.66 81.3103L124.449 57.741Z" fill="#9281FF"/>
<path d="M102.81 78.6185L121.214 56.3474" stroke="black" stroke-width="0.75" stroke-miterlimit="10" stroke-linecap="round" stroke-linejoin="round"/>
<path d="M102.81 80.7879C102.81 80.7879 104.534 81.5478 106.661 81.3108L127.441 55.6573C127.441 55.6573 126.09 57.1694 123.381 55.6573L102.81 80.7879Z" fill="#9281FF" stroke="black" stroke-width="0.75" stroke-miterlimit="10" stroke-linecap="round" stroke-linejoin="round"/>
<path d="M123.381 55.6569L95.9604 54.3512" stroke="black" stroke-width="0.75" stroke-miterlimit="10" stroke-linecap="round" stroke-linejoin="round"/>
<path d="M127.441 55.6568C127.441 55.6568 133.231 52.3451 137.188 50.9912" stroke="black" stroke-width="0.75" stroke-miterlimit="10" stroke-linecap="round" stroke-linejoin="round"/>
<path d="M75.4067 84.2621L102.809 80.7879" stroke="black" stroke-width="0.75" stroke-miterlimit="10" stroke-linecap="round" stroke-linejoin="round"/>
<path d="M124.385 68.4213C123.451 67.8989 121.39 68.2407 121.664 72.1981L121.667 72.6128C121.349 71.0011 120.675 69.5606 119.274 69.7515C116.616 70.114 117.345 73.2744 117.345 73.2744V73.2749C116.779 72.1572 115.948 71.5102 114.76 71.8994C112.649 72.5908 113.301 76.9723 113.301 76.9723V76.9732C112.406 75.3844 111.288 74.2563 109.939 75.0766C107.951 76.2844 111.433 81.5953 111.433 81.5953L109.596 82.2923C110.714 83.1686 112.012 83.4143 113.139 83.2449C113.715 83.1582 114.229 82.7276 114.541 82.1746C114.541 82.1746 116.214 82.9259 117.217 82.3203C117.692 82.0332 118.026 81.3 118.208 80.3258L118.229 80.4991C118.799 81.0496 119.741 81.2358 120.518 80.7922C121.132 80.4414 121.497 79.465 121.704 78.4323L121.705 78.5719C121.705 78.5719 123.318 77.8267 124.281 75.149C125.244 72.4705 125.645 69.1261 124.385 68.4213Z" fill="#AA5C54"/>
<path d="M111.433 81.5944C111.433 81.5944 107.951 76.2835 109.939 75.0757C111.926 73.868 113.413 76.8848 114.421 79.3784C115.429 81.872 114.296 82.8651 113.139 83.2444C112.263 83.5319 110.823 83.0992 109.563 82.2681" stroke="black" stroke-width="0.75" stroke-miterlimit="10" stroke-linecap="round" stroke-linejoin="round"/>
<path d="M113.301 76.9719C113.301 76.9719 112.65 72.5903 114.76 71.8989C116.87 71.2076 117.855 73.7848 118.228 76.4624C118.602 79.14 118.22 81.7142 117.217 82.3198C116.215 82.925 114.542 82.1741 114.542 82.1741" stroke="black" stroke-width="0.75" stroke-miterlimit="10" stroke-linecap="round" stroke-linejoin="round"/>
<path d="M117.345 73.2744C117.345 73.2744 116.616 70.1145 119.274 69.7515C121.933 69.389 121.972 74.8995 121.936 76.3111C121.899 77.7224 121.578 80.1866 120.518 80.7918C119.742 81.2353 118.799 81.0491 118.23 80.4987" stroke="black" stroke-width="0.75" stroke-miterlimit="10" stroke-linecap="round" stroke-linejoin="round"/>
<path d="M121.705 78.5715C121.705 78.5715 123.319 77.8262 124.282 75.1486C125.244 72.471 125.645 69.1265 124.385 68.4213C123.451 67.8989 121.39 68.2407 121.664 72.1977" stroke="black" stroke-width="0.75" stroke-miterlimit="10" stroke-linecap="round" stroke-linejoin="round"/>
<path d="M57.3231 137.217C57.3231 137.217 49.4949 148.231 51.7209 154.552C53.9468 160.874 62.1858 162.3 66.7238 160.456C71.2618 158.612 71.2237 153.051 67.8729 150.356C65.0881 148.116 69.7736 139.068 69.7736 139.068L57.3231 137.217Z" fill="#F4CAFC"/>
<path d="M59.2401 138.044C59.2401 138.044 53.2396 147.23 54.4219 152.475C55.6041 157.72 62.9295 160.1 68.4735 159.225" stroke="black" stroke-width="0.75" stroke-miterlimit="10" stroke-linecap="round" stroke-linejoin="round"/>
<path d="M63.8014 139.138C63.8014 139.138 57.1424 148.449 60.0895 153.303C63.0367 158.157 69.7427 157.028 69.7427 157.028" stroke="black" stroke-width="0.75" stroke-miterlimit="10" stroke-linecap="round" stroke-linejoin="round"/>
<path d="M67.4321 139.773C67.4321 139.773 61.8496 146.717 63.9378 151.275C66.0261 155.832 70.2703 155.318 70.2703 155.318" stroke="black" stroke-width="0.75" stroke-miterlimit="10" stroke-linecap="round" stroke-linejoin="round"/>
<path d="M51.4644 150.246C51.2361 151.787 51.2684 153.267 51.721 154.552C52.6189 157.103 54.4963 158.855 56.7142 159.919C58.362 158.433 59.0437 156.102 58.2512 153.919C57.2622 151.194 54.3268 149.661 51.4644 150.246Z" fill="#9281FF"/>
<path d="M57.3231 137.217C57.3231 137.217 49.4949 148.231 51.7209 154.552C53.9468 160.874 62.1858 162.3 66.7238 160.456C71.2618 158.612 71.2237 153.051 67.8729 150.356C65.0881 148.116 69.7736 139.068 69.7736 139.068L57.3231 137.217Z" stroke="black" stroke-width="0.75" stroke-miterlimit="10" stroke-linecap="round" stroke-linejoin="round"/>
<path d="M61.2188 108.483C61.2188 108.483 67.6616 109.813 69.8979 111.956C72.4525 114.404 75.9262 121.852 69.5278 149.21L50.6462 145.165L57.6577 107.053L61.2188 108.483Z" fill="#FEFFFF"/>
<path d="M70.4009 145.314H70.3839V138.736H71.6832C71.707 138.598 71.7298 138.462 71.7532 138.325H70.3839V131.747H72.6937C72.7089 131.61 72.7251 131.471 72.7394 131.336H70.3839V124.758H73.1606C73.1624 124.619 73.1628 124.484 73.1633 124.347H70.3839V117.769H72.6228C72.595 117.63 72.5663 117.492 72.5363 117.358H70.3839V112.475C70.2399 112.304 70.0973 112.151 69.9565 112.013V117.359H63.1118V110.781H68.153C67.8767 110.638 67.5883 110.501 67.2914 110.37H63.1118V108.945C62.9625 108.904 62.8207 108.867 62.6844 108.832V110.37H57.0467L56.9713 110.781H62.6848V117.359H55.8402V116.93L55.4128 119.252V124.348H54.4754L54.3996 124.759H55.4128V131.337H53.1896L53.1142 131.748H55.4128V138.326H51.9041L51.8283 138.736H55.4128V145.315H51.3435L53.2604 145.725H55.4128V146.187L55.8402 146.278V145.725H62.6848V147.744L63.1123 147.836V145.725H69.9569V147.336C70.1107 146.649 70.2596 145.974 70.4009 145.314ZM62.6848 145.314H55.8402V138.736H62.6848V145.314ZM62.6848 138.325H55.8402V131.747H62.6848V138.325ZM62.6848 131.337H55.8402V124.759H62.6848V131.337ZM62.6848 124.348H55.8402V117.77H62.6848V124.348ZM63.1123 117.77H69.9569V124.348H63.1123V117.77ZM63.1123 124.759H69.9569V131.337H63.1123V124.759ZM63.1123 131.748H69.9569V138.326H63.1123V131.748ZM63.1123 145.314V138.736H69.9569V145.314H63.1123Z" fill="#F4A8FF"/>
<path d="M53.1914 141.504L68.7689 144.68" stroke="black" stroke-width="0.75" stroke-miterlimit="10" stroke-linecap="round" stroke-linejoin="round"/>
<path d="M61.2188 108.483C61.2188 108.483 67.6616 109.813 69.8979 111.956C72.4525 114.404 75.9262 121.852 69.5278 149.21L50.6462 145.165L57.6577 107.053L61.2188 108.483Z" stroke="black" stroke-width="0.75" stroke-miterlimit="10" stroke-linecap="round" stroke-linejoin="round"/>
<path d="M59.5365 175.885H20.7844C17.4058 175.885 14.6667 173.252 14.6667 170.005V131.035C14.6667 127.788 17.4058 125.156 20.7844 125.156H59.5365C62.9151 125.156 65.6541 127.788 65.6541 131.035V170.005C65.6541 173.252 62.9151 175.885 59.5365 175.885Z" fill="#FEFFFF" stroke="black" stroke-width="0.75" stroke-miterlimit="10" stroke-linecap="round" stroke-linejoin="round"/>
<path d="M30.468 145.57C30.468 145.57 29.8572 137.785 31.9445 137.355C34.0319 136.925 36.0098 143.743 36.0098 143.743L30.468 145.57Z" fill="#F7D202"/>
<path d="M31.9444 144.397C31.9444 144.397 30.8742 139.533 31.9444 139.111C33.0145 138.689 34.3591 143.544 34.3591 143.544" stroke="black" stroke-width="0.75" stroke-miterlimit="10" stroke-linecap="round" stroke-linejoin="round"/>
<path d="M50.8418 145.57C50.8418 145.57 51.4526 137.785 49.3653 137.355C47.2784 136.925 45.3 143.743 45.3 143.743L50.8418 145.57Z" fill="#F7D202"/>
<path d="M49.3652 144.397C49.3652 144.397 50.4354 139.533 49.3652 139.111C48.2951 138.689 46.9509 143.544 46.9509 143.544" stroke="black" stroke-width="0.75" stroke-miterlimit="10" stroke-linecap="round" stroke-linejoin="round"/>
<path d="M40.6549 168.066C49.3825 168.066 56.4575 162.14 56.4575 154.829C56.4575 147.518 49.3825 141.592 40.6549 141.592C31.9274 141.592 24.8523 147.518 24.8523 154.829C24.8523 162.14 31.9274 168.066 40.6549 168.066Z" fill="#F7D202"/>
<path d="M35.9657 142.355C35.9657 142.355 35.2539 147.199 37.2942 146.971C39.3349 146.743 39.2254 142.432 39.2254 142.432C39.2254 142.432 39.2303 147.18 41.2894 147.045C43.3485 146.91 42.4152 142.418 42.4152 142.418C42.4152 142.418 42.7085 147.635 44.5272 147.112C46.3459 146.588 44.9573 142.611 44.9573 142.611" stroke="black" stroke-width="0.75" stroke-miterlimit="10" stroke-linecap="round" stroke-linejoin="round"/>
<path d="M27.5502 148.077C27.5502 148.077 30.6677 148.263 30.648 150.051C30.6283 151.838 27.5502 151.506 27.5502 151.506C27.5502 151.506 30.3228 151.69 30.0277 153.62C29.7326 155.55 26.9043 155.204 26.9043 155.204C26.9043 155.204 29.4891 155.362 29.2182 157.43C28.9473 159.498 25.8145 158.476 25.8145 158.476" stroke="black" stroke-width="0.75" stroke-miterlimit="10" stroke-linecap="round" stroke-linejoin="round"/>
<path d="M55.2379 159.935C55.2379 159.935 50.8955 160.307 50.7336 157.995C50.5716 155.684 54.1861 156.618 54.1861 156.618C54.1861 156.618 50.987 155.747 51.2247 154.159C51.4624 152.571 55.2379 153.403 55.2379 153.403C55.2379 153.403 51.0901 153.069 51.6969 150.955C52.1768 149.282 55.59 150.501 55.59 150.501" stroke="black" stroke-width="0.75" stroke-miterlimit="10" stroke-linecap="round" stroke-linejoin="round"/>
<path d="M28.9954 145.893C31.8846 143.25 36.0387 141.592 40.6547 141.592C46.0022 141.592 50.7295 143.817 53.5891 147.221" stroke="black" stroke-width="0.75" stroke-miterlimit="10" stroke-linecap="round" stroke-linejoin="round"/>
<path d="M40.3786 152.325C40.3786 152.325 36.9305 151.759 38.4182 150.407C39.1982 149.698 41.8896 149.521 42.0103 150.485C42.1309 151.448 40.3786 152.325 40.3786 152.325Z" fill="black"/>
<path d="M34.7563 151.252C34.7563 151.976 34.1454 152.563 33.3919 152.563C32.6385 152.563 32.0276 151.976 32.0276 151.252C32.0276 150.528 32.6385 149.941 33.3919 149.941C34.1454 149.941 34.7563 150.528 34.7563 151.252Z" fill="black"/>
<path d="M77.7271 140.274C77.7271 140.274 85.9692 151.005 92.913 151.067C99.8567 151.129 103.972 144.123 103.655 139.397C103.338 134.672 97.8613 132.875 94.11 135.028C90.9925 136.818 83.6464 129.586 83.6464 129.586L77.7271 140.274Z" fill="#F4CAFC"/>
<path d="M79.1707 138.807C79.1707 138.807 86.2189 147.278 91.7615 147.932C97.3041 148.587 102.055 142.723 103.021 137.404" stroke="black" stroke-width="0.75" stroke-miterlimit="10" stroke-linecap="round" stroke-linejoin="round"/>
<path d="M81.748 135.028C81.748 135.028 88.7021 144.137 94.4421 143.061C100.182 141.986 101.281 135.529 101.281 135.529" stroke="black" stroke-width="0.75" stroke-miterlimit="10" stroke-linecap="round" stroke-linejoin="round"/>
<path d="M83.5676 131.943C83.5676 131.943 88.5505 139.295 93.7164 138.901C98.8823 138.508 99.7748 134.487 99.7748 134.487" stroke="black" stroke-width="0.75" stroke-miterlimit="10" stroke-linecap="round" stroke-linejoin="round"/>
<path d="M88.5974 149.881C90.0362 150.596 91.501 151.054 92.9129 151.067C95.7143 151.092 98.0546 149.966 99.8298 148.304C98.9126 146.319 96.8468 144.933 94.4414 144.933C91.4387 144.933 88.9656 147.092 88.5974 149.881Z" fill="#9281FF"/>
<path d="M95.821 134.342C97.0719 136.273 99.7006 139.534 103.647 140.521C103.674 140.136 103.679 139.759 103.655 139.397C103.383 135.353 99.3346 133.457 95.821 134.342Z" fill="#9281FF"/>
<path d="M77.7271 140.274C77.7271 140.274 85.9692 151.005 92.913 151.067C99.8567 151.129 103.972 144.123 103.655 139.397C103.338 134.672 97.8613 132.875 94.11 135.028C90.9925 136.818 83.6464 129.586 83.6464 129.586L77.7271 140.274Z" stroke="black" stroke-width="0.75" stroke-miterlimit="10" stroke-linecap="round" stroke-linejoin="round"/>
<path d="M57.3753 107.798C57.3753 107.798 65.473 110.885 70.0652 113.769C74.6575 116.653 92.6044 132.429 92.6044 132.429L80.8249 148.493C80.8249 148.493 62.6721 132.235 60.3206 132.364C57.7614 132.505 47.4916 133.391 47.4916 133.391C47.4916 133.391 32.9066 135.184 30.2071 125.383C27.508 115.583 44.3619 106.793 57.3753 107.798Z" fill="#FEFFFF"/>
<path d="M85.8723 140.274V141.611L86.2997 141.028V140.274H86.8527L87.1536 139.863H86.2997V133.285H91.9773L92.2787 132.874H86.2997V126.954C86.1584 126.833 86.0162 126.71 85.8723 126.587V132.874H79.0276V126.296H85.5336C85.3753 126.16 85.2156 126.023 85.0546 125.885H79.0276V120.783C78.885 120.665 78.7424 120.546 78.6002 120.427V125.885H71.7556V119.307H77.2466C77.0789 119.168 76.9125 119.032 76.747 118.896H71.756V114.949C71.6089 114.839 71.4663 114.735 71.3286 114.635V118.896H64.484V112.318H67.5185C67.2562 112.18 66.9915 112.043 66.7233 111.907H64.484V110.82C64.3413 110.754 64.1987 110.688 64.0565 110.622V111.907H57.2119V107.786C57.0697 107.776 56.9276 107.766 56.7845 107.758V111.907H49.9398V108.184C49.7972 108.208 49.655 108.233 49.5124 108.259V111.907H42.6678V110.208C42.5247 110.265 42.3821 110.321 42.2404 110.379V111.907H39.0049C38.7573 112.041 38.5137 112.178 38.2729 112.317H42.2399V118.896H35.3953V114.238C35.2504 114.35 35.1082 114.463 34.9679 114.577V118.896H31.1592C31.0816 119.032 31.0076 119.169 30.9367 119.306H34.9679V125.884H30.3689C30.4142 126.021 30.455 126.163 30.5052 126.295H34.9683V131.338C35.11 131.418 35.2509 131.5 35.3957 131.574V126.295H42.2404V132.873H39.0008C39.7548 133.054 40.5042 133.188 41.229 133.284H42.2399V133.398C42.3834 133.411 42.527 133.425 42.6673 133.435V133.284H48.7343C49.8959 133.185 51.7312 133.03 53.6284 132.873H49.939V126.295H56.7836V132.619C56.928 132.607 57.0706 132.596 57.211 132.585V126.295H64.0556V132.873H61.6261C61.8337 132.991 62.0607 133.13 62.302 133.284H64.0556V134.492C64.196 134.594 64.3377 134.698 64.4831 134.805V133.284H71.3277V139.862H70.8348C70.9989 139.999 71.1631 140.136 71.3268 140.273H71.3277V140.274C71.4703 140.393 71.6129 140.513 71.7551 140.632V140.273H78.5998V146.523C78.907 146.793 79.1873 147.04 79.4389 147.262H81.7267L82.0281 146.852H79.0272V140.273H85.8723V140.274ZM79.0276 133.285H85.8723V139.864H79.0276V133.285ZM42.2413 125.886H35.3966V119.308H42.2413V125.886ZM49.5133 132.875H42.6687V126.297H49.5133V132.875ZM49.5133 125.886H42.6687V119.308H49.5133V125.886ZM49.5133 118.897H42.6687V112.319H49.5133V118.897ZM56.7849 125.886H49.9403V119.308H56.7849V125.886ZM56.7849 118.897H49.9403V112.319H56.7849V118.897ZM64.057 125.886H57.2124V119.308H64.057V125.886ZM64.057 118.897H57.2124V112.319H64.057V118.897ZM71.3286 132.875H64.484V126.297H71.3286V132.875ZM71.3286 125.886H64.484V119.308H71.3286V125.886ZM78.6002 139.863H71.7556V133.285H78.6002V139.863ZM78.6002 132.875H71.7556V126.297H78.6002V132.875Z" fill="#F4A8FF"/>
<path d="M57.3753 107.798C57.3753 107.798 65.473 110.885 70.0652 113.769C74.6575 116.653 92.6044 132.429 92.6044 132.429L80.8249 148.493C80.8249 148.493 62.6721 132.235 60.3206 132.364C57.7614 132.505 47.4916 133.391 47.4916 133.391C47.4916 133.391 32.9066 135.184 30.2071 125.383C27.508 115.583 44.3619 106.793 57.3753 107.798Z" stroke="black" stroke-width="0.75" stroke-miterlimit="10" stroke-linecap="round" stroke-linejoin="round"/>
<path d="M59.8623 130.228L60.3207 132.365L62.7812 130.79" stroke="black" stroke-width="0.75" stroke-miterlimit="10" stroke-linecap="round" stroke-linejoin="round"/>
<path d="M77.7271 143.837C77.8603 143.622 87.6749 130.79 87.6749 130.79" stroke="black" stroke-width="0.75" stroke-miterlimit="10" stroke-linecap="round" stroke-linejoin="round"/>
<path d="M49.3086 81.2617L45.2851 80.5242C43.5691 80.2099 42.4433 78.6181 42.7707 76.9689L43.9472 71.0399C44.2746 69.3908 45.9305 68.3089 47.6464 68.6235L51.67 69.361C53.3859 69.6753 54.5117 71.2671 54.1843 72.9163L53.0079 78.8453C52.6804 80.4944 51.0241 81.5763 49.3086 81.2617Z" fill="#AA5C54" stroke="black" stroke-width="0.75" stroke-miterlimit="10" stroke-linecap="round" stroke-linejoin="round"/>
<path d="M59.3169 60.9497C59.3169 60.9497 61.3132 62.3609 62.0523 63.0006C62.7381 63.5941 61.2957 65.1416 60.4709 65.3342C59.6452 65.5273 59.3169 60.9497 59.3169 60.9497Z" fill="#843E3E"/>
<path d="M58.5621 67.8442C59.4295 67.6722 60.3848 67.0881 60.9934 66.6636C60.9831 66.5963 60.9782 66.5295 60.9656 66.4623L59.5811 59.0039C58.9047 55.3621 55.6284 52.8491 52.3001 53.4198L47.2939 54.2784C43.9655 54.8491 41.7956 58.2957 42.4715 61.9376L43.8561 69.3959C43.8951 69.6063 43.9449 69.8115 44.0005 70.0141C43.9875 70.2434 43.9982 70.4766 44.0417 70.7119L44.2126 71.6318L53.2482 74.618L56.1428 74.1215C58.4145 73.7318 60.1444 72.002 60.8006 69.7852C59.1097 68.8757 58.5621 67.8442 58.5621 67.8442Z" fill="#AA5C54"/>
<path d="M53.2486 74.618L56.1433 74.1215C58.415 73.7318 60.1449 72.002 60.801 69.7856C59.1097 68.8757 58.5621 67.8442 58.5621 67.8442C59.4295 67.6722 60.3848 67.0881 60.9934 66.6636C60.9827 66.5963 60.9782 66.5295 60.9656 66.4623L59.5811 59.0039C58.9047 55.3621 55.6284 52.8491 52.3001 53.4198L47.2939 54.2784C43.9655 54.8491 41.7956 58.2957 42.4715 61.9376L43.8565 69.3959C43.8955 69.6063 43.9453 69.8115 44.0009 70.0141C43.9879 70.2434 43.9987 70.4766 44.0422 70.7119" stroke="black" stroke-width="0.75" stroke-miterlimit="10" stroke-linecap="round" stroke-linejoin="round"/>
<path d="M47.7685 58.0668C47.7685 58.0668 56.7611 58.2673 58.7502 53.5133C60.7393 48.7593 56.0439 46.102 51.5965 47.4326C51.5965 47.4326 53.1744 43.201 48.8934 43.0174C44.6124 42.8338 41.9954 49.1356 41.9954 49.1356C41.9954 49.1356 30.7778 49.074 28.5936 58.8957C26.4368 68.5937 33.1787 72.7718 37.1197 74.4995C40.9737 76.1891 43.5364 75.2365 43.6096 75.1352L45.409 67.136C45.409 67.136 49.2298 64.6984 47.7685 58.0668Z" fill="black"/>
<path d="M37.3752 69.677C37.7649 71.7753 39.8648 73.1701 42.0661 72.793C44.2673 72.4154 45.7362 70.4084 45.3464 68.3101C44.9571 66.2118 42.8568 64.817 40.6555 65.1941C38.4543 65.5717 36.9854 67.5787 37.3752 69.677Z" fill="#AA5C54"/>
<path d="M43.61 69.1257C43.61 69.1257 43.3063 66.5148 40.6023 67.2748" stroke="black" stroke-width="0.75" stroke-miterlimit="10" stroke-linecap="round" stroke-linejoin="round"/>
<path d="M26.6885 49.6206C26.6158 47.5443 24.8052 45.9179 22.6447 45.9878C21.9119 46.0115 21.2355 46.2309 20.661 46.5869C19.9802 45.8869 19.0029 45.4606 17.9283 45.4951C15.953 45.5589 14.4057 47.1498 14.4721 49.0482C14.4725 49.0607 14.4748 49.0727 14.4752 49.0852C12.9647 49.352 11.8425 50.6447 11.8959 52.1646C11.9291 53.1176 12.4179 53.9517 13.153 54.484C12.4538 55.1698 12.0345 56.1164 12.0708 57.1518C12.1412 59.1608 13.8931 60.7346 15.9831 60.6669C16.11 60.6626 16.2347 60.6522 16.358 60.6363C17.0501 62.1747 18.6652 63.2286 20.513 63.1691C22.9246 63.0911 24.8133 61.1488 24.7321 58.8315C24.6823 57.4138 24.8626 56.0052 23.7158 55.2819C23.9858 54.7573 23.64 54.5879 23.618 53.962C23.6153 53.884 23.7288 53.4694 23.7211 53.3931C25.774 53.2155 26.7584 51.6249 26.6885 49.6206Z" fill="black"/>
<path d="M23.7267 56.1707C22.7885 54.6133 23.6927 52.6391 25.5571 52.2728C26.6792 52.0525 27.8548 52.5672 28.4289 53.5198C29.3671 55.0771 28.463 57.0513 26.5985 57.4172C25.4764 57.6384 24.3008 57.1233 23.7267 56.1707Z" fill="#F4A8FF"/>
<path d="M13.1848 63.9186C13.9887 63.0851 13.9373 61.7831 13.0701 61.0106C12.2028 60.238 10.8481 60.2873 10.0442 61.1208C9.2403 61.9543 9.29168 63.2563 10.159 64.0289C11.0262 64.8015 12.381 64.7521 13.1848 63.9186Z" fill="black"/>
<path d="M39.389 83.3875C39.389 83.3875 37.1402 81.0806 38.0031 78.3323C38.8656 75.5844 42.1948 72.9468 50.3455 75.1352C58.4962 77.3236 62.1793 82.8867 59.1541 89.2708C56.129 95.6546 46.5991 90.8071 44.8903 86.3402C43.1815 81.8729 39.389 83.3875 39.389 83.3875Z" fill="#B4A6EE" stroke="black" stroke-width="0.75" stroke-miterlimit="10" stroke-linecap="round" stroke-linejoin="round"/>
<path d="M41.1054 81.5383C41.1054 81.5383 40.5748 78.5978 41.2673 76.6546" stroke="black" stroke-width="0.75" stroke-miterlimit="10" stroke-linecap="round" stroke-linejoin="round"/>
<path d="M46.9756 75.1352C46.9756 75.1352 45.3587 78.7133 45.3318 81.4677" stroke="black" stroke-width="0.75" stroke-miterlimit="10" stroke-linecap="round" stroke-linejoin="round"/>
<path d="M48.8203 82.3414C48.8203 82.3414 51.832 80.2677 53.0062 77.6581" stroke="black" stroke-width="0.75" stroke-miterlimit="10" stroke-linecap="round" stroke-linejoin="round"/>
<path d="M50.1772 86.0208C50.2817 86.0208 54.9691 85.3884 57.4928 82.7143" stroke="black" stroke-width="0.75" stroke-miterlimit="10" stroke-linecap="round" stroke-linejoin="round"/>
<path d="M50.9131 89.0984C51.2257 89.0932 54.7411 89.7342 58.0802 87.6936" stroke="black" stroke-width="0.75" stroke-miterlimit="10" stroke-linecap="round" stroke-linejoin="round"/>
<path d="M36.9725 114.777C30.8647 118.959 30.9795 127 30.9795 127C30.9795 127 27.4606 126.376 24.8794 118.471C22.2978 110.565 31.9165 85.4329 41.0942 80.2677C41.0942 80.2677 50.2711 72.8171 56.0904 87.3282C60.8293 99.1456 63.0198 109.229 63.0198 109.229C63.0198 109.229 47.611 107.491 36.9725 114.777Z" fill="#B4A6EE"/>
<path d="M40.5283 112.74C40.2068 112.341 39.7085 112.079 39.142 112.079H38.8518V111.8C38.8518 110.867 38.0647 110.11 37.0932 110.11C36.1222 110.11 35.3347 110.866 35.3347 111.8V112.079H35.0445C34.0735 112.079 33.2859 112.835 33.2859 113.769C33.2859 114.702 34.073 115.459 35.0445 115.459H35.3347V115.738C35.3347 115.857 35.3481 115.974 35.3728 116.086C35.8522 115.621 36.3824 115.18 36.9721 114.777C38.1105 113.997 39.3053 113.326 40.5283 112.74Z" fill="#F7D202"/>
<path d="M38.3494 113.769C38.3494 113.102 37.787 112.561 37.0932 112.561C36.3993 112.561 35.8369 113.102 35.8369 113.769C35.8369 114.325 36.2307 114.789 36.7631 114.929C36.8335 114.878 36.9003 114.826 36.9721 114.776C37.4174 114.472 37.8736 114.188 38.3337 113.914C38.3405 113.866 38.3494 113.818 38.3494 113.769Z" fill="#FEFFFF"/>
<path d="M25.8832 107.204V107.482C25.8832 108.416 26.6703 109.173 27.6418 109.173C28.6128 109.173 29.4004 108.416 29.4004 107.482V107.204H29.6906C30.6616 107.204 31.4491 106.447 31.4491 105.513C31.4491 104.58 30.662 103.823 29.6906 103.823H29.4004V103.544C29.4004 102.611 28.6128 101.854 27.6418 101.854C27.5001 101.854 27.3642 101.875 27.2318 101.905C26.6048 103.708 26.0657 105.492 25.6343 107.203H25.8832V107.204Z" fill="#F7D202"/>
<path d="M27.641 106.721C28.3348 106.721 28.8973 106.18 28.8973 105.513C28.8973 104.847 28.3348 104.306 27.641 104.306C26.9472 104.306 26.3848 104.847 26.3848 105.513C26.3848 106.18 26.9472 106.721 27.641 106.721Z" fill="#FEFFFF"/>
<path d="M29.5022 121.024C29.5022 120.091 28.7146 119.334 27.7436 119.334H27.4534V119.055C27.4534 118.122 26.6658 117.365 25.6948 117.365C25.3127 117.365 24.962 117.485 24.6736 117.684C24.7305 117.962 24.7992 118.224 24.8794 118.471C25.6365 120.79 26.4743 122.478 27.2803 123.712C27.3884 123.493 27.4534 123.251 27.4534 122.993V122.714H27.7436C28.7146 122.714 29.5022 121.957 29.5022 121.024Z" fill="#F7D202"/>
<path d="M25.6947 119.817C25.5821 119.817 25.4745 119.836 25.3708 119.862C25.6853 120.686 26.0086 121.412 26.3338 122.058C26.7016 121.848 26.9509 121.465 26.9509 121.024C26.9509 120.357 26.3885 119.817 25.6947 119.817Z" fill="#FEFFFF"/>
<path d="M56.0929 87.3346C55.3865 87.554 54.8726 88.1838 54.8726 88.9355C54.8726 89.8687 55.6597 90.6256 56.6311 90.6256H56.9213V90.9045C56.9213 91.6213 57.3873 92.23 58.0426 92.4757C57.4483 90.8183 56.7993 89.0963 56.0929 87.3346Z" fill="#F7D202"/>
<path d="M54.4991 102.029H54.7893V101.75C54.7893 100.817 55.5764 100.06 56.5478 100.06C57.5188 100.06 58.3064 100.816 58.3064 101.75V102.029H58.5966C59.5676 102.029 60.3552 102.785 60.3552 103.719C60.3552 104.652 59.5681 105.409 58.5966 105.409H58.3064V105.688C58.3064 106.621 57.5193 107.378 56.5478 107.378C55.5768 107.378 54.7893 106.622 54.7893 105.688V105.409H54.4991C53.5281 105.409 52.7405 104.652 52.7405 103.719C52.7405 102.786 53.5281 102.029 54.4991 102.029Z" fill="#F7D202"/>
<path d="M55.2915 103.719C55.2915 104.386 55.8539 104.926 56.5478 104.926C57.2416 104.926 57.804 104.386 57.804 103.719C57.804 103.052 57.2416 102.512 56.5478 102.512C55.8539 102.512 55.2915 103.052 55.2915 103.719Z" fill="#FEFFFF"/>
<path d="M28.5413 117.943C28.5413 117.943 31.2552 114.401 36.5516 110.974C36.5516 110.974 47.4919 105.513 59.8626 106.721" stroke="black" stroke-width="0.75" stroke-miterlimit="10" stroke-linecap="round" stroke-linejoin="round"/>
<path d="M49.8415 79.1608C51.8706 80.3444 54.3288 82.9354 56.0901 87.3278C60.829 99.1452 63.0195 109.228 63.0195 109.228C63.0195 109.228 47.6107 107.491 36.9726 114.777C30.8648 118.959 30.9797 127 30.9797 127C30.9797 127 29.2215 126.688 27.2791 123.713" stroke="black" stroke-width="0.75" stroke-miterlimit="10" stroke-linecap="round" stroke-linejoin="round"/>
<path d="M54.4467 63.5993C54.4556 64.2001 54.9696 64.6808 55.5948 64.6721C56.22 64.6635 56.7201 64.1695 56.7112 63.5682C56.7022 62.9674 56.1882 62.4872 55.5625 62.4954C54.9378 62.504 54.4377 62.9984 54.4467 63.5993Z" fill="black"/>
<path d="M48.8311 68.2291C48.8572 69.9778 50.3529 71.3753 52.173 71.3507C53.9925 71.3257 55.447 69.8882 55.421 68.1394C55.395 66.3907 53.8992 64.9928 52.0792 65.0178C50.2596 65.0424 48.8056 66.4803 48.8311 68.2291Z" fill="#843E3E"/>
<path d="M52.929 62.4626C53.2819 61.8286 53.7152 61.2355 54.2162 60.701" stroke="black" stroke-width="2" stroke-miterlimit="10" stroke-linecap="round" stroke-linejoin="round"/>
<path d="M43.2593 125.384C43.2593 125.384 43.6387 132.888 46.85 135.653C50.0617 138.418 60.0212 136.101 61.6439 135.476C63.2666 134.852 63.4209 133.288 60.3208 132.365C58.5667 131.843 55.8919 126.215 55.529 124.155C55.1662 122.094 43.2593 125.384 43.2593 125.384Z" fill="#AA5C54"/>
<path d="M46.8503 135.653C50.0621 138.418 60.0216 136.101 61.6443 135.476C63.267 134.852 63.4212 133.288 60.3212 132.365C58.5671 131.843 55.8922 126.215 55.5294 124.155" stroke="black" stroke-width="0.75" stroke-miterlimit="10" stroke-linecap="round" stroke-linejoin="round"/>
<path d="M54.0592 91.1645C52.6549 80.4453 50.2716 75.1021 41.0938 80.2673C39.8793 80.9505 38.6576 81.9837 37.4569 83.2803L37.0694 90.7782C37.0694 90.7782 33.4697 116.461 41.5338 128.577L58.7882 125.808C58.7882 125.808 55.4635 101.884 54.0592 91.1645Z" fill="#B4A6EE"/>
<path d="M41.1655 121.991L43.1246 128.322" stroke="black" stroke-width="0.75" stroke-miterlimit="10" stroke-linecap="round" stroke-linejoin="round"/>
<path d="M45.3264 121.507L46.8612 127.722" stroke="black" stroke-width="0.75" stroke-miterlimit="10" stroke-linecap="round" stroke-linejoin="round"/>
<path d="M48.9351 121.051L50.2711 127" stroke="black" stroke-width="0.75" stroke-miterlimit="10" stroke-linecap="round" stroke-linejoin="round"/>
<path d="M52.7854 120.564L53.9112 126.59" stroke="black" stroke-width="0.75" stroke-miterlimit="10" stroke-linecap="round" stroke-linejoin="round"/>
<path d="M55.7593 120.188L56.7554 126.134" stroke="black" stroke-width="0.75" stroke-miterlimit="10" stroke-linecap="round" stroke-linejoin="round"/>
<path d="M56.464 108.966C56.3196 108.929 56.1707 108.903 56.0146 108.903C55.0436 108.903 54.256 109.659 54.256 110.593V110.872H53.9659C52.9949 110.872 52.2073 111.628 52.2073 112.562C52.2073 113.495 52.9944 114.252 53.9659 114.252H54.256V114.531C54.256 115.464 55.0432 116.221 56.0146 116.221C56.5663 116.221 57.0525 115.972 57.3749 115.59C57.0897 113.522 56.7802 111.273 56.464 108.966Z" fill="#F7D202"/>
<path d="M56.0148 113.769C56.4458 113.769 56.8253 113.56 57.0518 113.242C56.98 112.72 56.9069 112.189 56.8333 111.653C56.6131 111.47 56.3292 111.354 56.0148 111.354C55.321 111.354 54.7585 111.895 54.7585 112.562C54.7585 113.228 55.321 113.769 56.0148 113.769Z" fill="#FEFFFF"/>
<path d="M50.6458 120.834C50.5341 120.004 49.804 119.361 48.9101 119.361H48.6199V119.082C48.6199 118.149 47.8328 117.392 46.8613 117.392C45.8898 117.392 45.1027 118.148 45.1027 119.082V119.361H44.8125C43.8415 119.361 43.054 120.117 43.054 121.051C43.054 121.31 43.1194 121.553 43.228 121.772L50.6458 120.834Z" fill="#F7D202"/>
<path d="M48.1063 121.155C48.1094 121.121 48.1175 121.087 48.1175 121.051C48.1175 120.384 47.5551 119.843 46.8612 119.843C46.1674 119.843 45.605 120.384 45.605 121.051C45.605 121.196 45.6359 121.333 45.6848 121.462L48.1063 121.155Z" fill="#FEFFFF"/>
<path d="M39.8631 107.315H39.5729V107.036C39.5729 106.103 38.7853 105.346 37.8143 105.346C37.164 105.346 36.6029 105.689 36.2983 106.194C36.3472 108.158 36.4611 110.198 36.6675 112.245C36.976 112.503 37.3739 112.664 37.8143 112.664C38.7853 112.664 39.5729 111.907 39.5729 110.974V110.695H39.8631C40.8341 110.695 41.6216 109.938 41.6216 109.005C41.6216 108.071 40.8341 107.315 39.8631 107.315Z" fill="#F7D202"/>
<path d="M36.5588 109.005C36.5588 109.672 37.1213 110.213 37.8151 110.213C38.5089 110.213 39.0714 109.672 39.0714 109.005C39.0714 108.338 38.5089 107.798 37.8151 107.798C37.1213 107.798 36.5588 108.339 36.5588 109.005Z" fill="#FEFFFF"/>
<path d="M46.6993 97.7202H46.9894V97.4413C46.9894 96.5081 47.7766 95.7512 48.748 95.7512C49.719 95.7512 50.5066 96.5076 50.5066 97.4413V97.7202H50.7968C51.7678 97.7202 52.5554 98.4766 52.5554 99.4103C52.5554 100.343 51.7683 101.1 50.7968 101.1H50.5066V101.379C50.5066 102.312 49.7195 103.069 48.748 103.069C47.777 103.069 46.9894 102.313 46.9894 101.379V101.1H46.6993C45.7283 101.1 44.9407 100.343 44.9407 99.4103C44.9407 98.4766 45.7278 97.7202 46.6993 97.7202Z" fill="#F7D202"/>
<path d="M47.4919 99.4099C47.4919 100.077 48.0544 100.617 48.7482 100.617C49.442 100.617 50.004 100.077 50.004 99.4099C50.004 98.743 49.4416 98.2025 48.7482 98.2025C48.0544 98.2029 47.4919 98.7435 47.4919 99.4099Z" fill="#FEFFFF"/>
<path d="M35.6326 88.8377H35.9228V88.5588C35.9228 87.6256 36.7099 86.8687 37.6814 86.8687C38.6528 86.8687 39.44 87.6251 39.44 88.5588V88.8377H39.7302C40.7012 88.8377 41.4887 89.5941 41.4887 90.5278C41.4887 91.4614 40.7016 92.2179 39.7302 92.2179H39.44V92.4968C39.44 93.43 38.6528 94.1869 37.6814 94.1869C36.7099 94.1869 35.9228 93.4304 35.9228 92.4968V92.2179H35.6326C34.6616 92.2179 33.874 91.4614 33.874 90.5278C33.874 89.5941 34.6616 88.8377 35.6326 88.8377Z" fill="#F7D202"/>
<path d="M37.6813 91.7347C38.3751 91.7347 38.9376 91.1942 38.9376 90.5274C38.9376 89.8606 38.3751 89.32 37.6813 89.32C36.9875 89.32 36.425 89.8606 36.425 90.5274C36.425 91.1942 36.9875 91.7347 37.6813 91.7347Z" fill="#FEFFFF"/>
<path d="M48.8367 83.1755H49.1269V83.4544C49.1269 84.3876 49.914 85.1445 50.8855 85.1445C51.7314 85.1445 52.4369 84.5703 52.605 83.8052C51.8377 81.3634 50.7998 79.6401 49.2861 78.8215C49.1861 79.034 49.1269 79.2681 49.1269 79.5164V79.7953H48.8367C47.8657 79.7953 47.0781 80.5517 47.0781 81.4854C47.0781 82.419 47.8652 83.1755 48.8367 83.1755Z" fill="#F7D202"/>
<path d="M50.8854 82.6927C51.3487 82.6927 51.7483 82.4492 51.9663 82.091C51.6591 81.3996 51.3146 80.7953 50.9271 80.2828C50.9128 80.2823 50.8998 80.2789 50.885 80.2789C50.1911 80.2789 49.6292 80.8194 49.6292 81.4862C49.6296 82.1522 50.1916 82.6927 50.8854 82.6927Z" fill="#FEFFFF"/>
<path d="M37.0694 90.7782C37.0694 90.7782 33.4697 116.461 41.5338 128.577L58.7882 125.808C58.7882 125.808 55.4635 101.884 54.0592 91.1645C52.6549 80.4453 50.2716 75.1021 41.0938 80.2673C39.8793 80.9509 38.6576 81.9837 37.4569 83.2803" stroke="black" stroke-width="0.75" stroke-miterlimit="10" stroke-linecap="round" stroke-linejoin="round"/>
<path d="M39.2549 122.275L57.6234 119.952" stroke="black" stroke-width="0.75" stroke-miterlimit="10" stroke-linecap="round" stroke-linejoin="round"/>
</svg>
