<svg width="14" height="14" viewBox="0 0 14 14" fill="none" xmlns="http://www.w3.org/2000/svg">
<path d="M1.60425 9.41675V2.91608H0.729248V9.41792L1.60425 9.41675ZM13.2709 9.41675V2.87817H12.3959V9.41733L13.2709 9.41675ZM11.6994 1.32358C11.035 1.34692 10.1676 1.41517 9.49966 1.61525L9.7505 2.45408C10.3047 2.28842 11.077 2.22075 11.7297 2.198L11.6994 1.32358ZM9.49966 1.61525C8.91925 1.78908 8.2665 2.12917 7.75725 2.42375L8.19591 3.18092C8.69175 2.89392 9.27216 2.59758 9.7505 2.45408L9.49966 1.61525ZM2.29608 2.23067C2.85958 2.26508 3.49775 2.33217 3.972 2.45758L4.19483 1.61117C3.63483 1.463 2.9255 1.39242 2.34975 1.35683L2.29608 2.23067ZM3.972 2.45758C4.53316 2.60575 5.22383 2.93008 5.79375 3.23108L6.20208 2.45758C5.62166 2.15017 4.85808 1.78675 4.19541 1.61175L3.972 2.45758ZM8.15508 12.0925C8.73316 11.7845 9.4495 11.445 10.0282 11.2922L9.80533 10.4463C9.12283 10.626 8.33183 11.0069 7.74383 11.3207L8.15508 12.0925ZM10.0282 11.2922C10.4966 11.1685 11.126 11.1008 11.6854 11.0658L11.6306 10.1926C11.0589 10.2288 10.3595 10.2993 9.80475 10.4458L10.0282 11.2922ZM6.25633 11.3202C5.66833 11.0069 4.87791 10.626 4.19483 10.4458L3.972 11.2916C4.55066 11.445 5.267 11.7845 5.8445 12.0925L6.25633 11.3202ZM4.19483 10.4458C3.64066 10.2999 2.94066 10.2288 2.369 10.1926L2.31475 11.0658C2.87416 11.1008 3.50358 11.1685 3.97141 11.2922L4.19483 10.4458ZM12.3959 9.41733C12.3959 9.8175 12.0646 10.1657 11.6306 10.1926L11.6854 11.0658C12.5452 11.0122 13.2709 10.3127 13.2709 9.41675L12.3959 9.41733ZM13.2709 2.87817C13.2709 2.02417 12.5913 1.2915 11.6994 1.32242L11.7297 2.198C12.0885 2.18517 12.3959 2.47975 12.3959 2.877L13.2709 2.87817ZM0.729248 9.41675C0.729248 10.3127 1.45491 11.0127 2.31475 11.067L2.369 10.1926C1.935 10.1657 1.60425 9.81633 1.60425 9.41675H0.729248ZM7.74383 11.3207C7.51477 11.4423 7.2594 11.5059 7.00008 11.5059C6.74076 11.5059 6.4854 11.4417 6.25633 11.3202L5.84508 12.0925C6.20074 12.2815 6.59734 12.3803 7.00008 12.3803C7.40283 12.3803 7.79942 12.2815 8.15508 12.0925L7.74383 11.3207ZM7.75725 2.42258C7.52193 2.55861 7.2561 2.63307 6.98437 2.63909C6.71263 2.6451 6.44377 2.58248 6.20266 2.457L5.79375 3.23108C6.16594 3.42588 6.58136 3.52279 7.00136 3.51392C7.42135 3.50504 7.83228 3.39009 8.19591 3.17975L7.75725 2.42258ZM1.60425 2.91608C1.60425 2.5095 1.92625 2.20792 2.29608 2.23067L2.34975 1.35683C1.44091 1.30142 0.729248 2.04225 0.729248 2.91608H1.60425Z" fill="#494949"/>
<path d="M7 3.41484V12.25" stroke="#494949" stroke-width="0.8"/>
<path d="M2.91675 5.24999L5.25008 5.83333M2.91675 7.58333L5.25008 8.16666M11.0834 7.58333L8.75008 8.16666M11.0834 3.20833V5.54749C11.0834 5.70849 11.0834 5.78899 11.028 5.82166C10.9726 5.85433 10.8973 5.81758 10.7457 5.74583L10.0212 5.40166C9.96983 5.37716 9.94416 5.36549 9.91675 5.36549C9.88933 5.36549 9.86366 5.37716 9.81233 5.40166L9.08783 5.74583C8.93616 5.81758 8.86033 5.85374 8.8055 5.82166C8.75008 5.78841 8.75008 5.70791 8.75008 5.54749V4.05416" stroke="#494949" stroke-width="0.8" stroke-linecap="round"/>
</svg>
