<svg width="20" height="20" viewBox="0 0 20 20" fill="none" xmlns="http://www.w3.org/2000/svg">
<g clip-path="url(#clip0_30_2899)">
<path d="M1.66669 13.3333C1.66669 10.9766 1.66669 9.79748 2.39919 9.06581C3.13085 8.33331 4.31002 8.33331 6.66669 8.33331H13.3334C15.69 8.33331 16.8692 8.33331 17.6009 9.06581C18.3334 9.79748 18.3334 10.9766 18.3334 13.3333C18.3334 15.69 18.3334 16.8691 17.6009 17.6008C16.8692 18.3333 15.69 18.3333 13.3334 18.3333H6.66669C4.31002 18.3333 3.13085 18.3333 2.39919 17.6008C1.66669 16.8691 1.66669 15.69 1.66669 13.3333Z" stroke="#C4C4C4" stroke-width="1.5"/>
<path d="M5 8.33332V6.66666C5 5.34057 5.52678 4.0688 6.46447 3.13112C7.40215 2.19344 8.67392 1.66666 10 1.66666C11.3261 1.66666 12.5979 2.19344 13.5355 3.13112C14.4732 4.0688 15 5.34057 15 6.66666V8.33332" stroke="#C4C4C4" stroke-width="1.5" stroke-linecap="round"/>
<path d="M6.66669 13.3333H6.67419M9.99252 13.3333H10M13.3259 13.3333H13.3334" stroke="#C4C4C4" stroke-width="2" stroke-linecap="round" stroke-linejoin="round"/>
</g>
<defs>
<clipPath id="clip0_30_2899">
<rect width="20" height="20" fill="white"/>
</clipPath>
</defs>
</svg>
