<svg width="15" height="14" viewBox="0 0 15 14" fill="none" xmlns="http://www.w3.org/2000/svg">
<path d="M6.04033 2.04167C6.44447 1.84983 6.88622 1.75031 7.33358 1.75031C7.78094 1.75031 8.22269 1.84983 8.62683 2.04167L12.5299 3.87158C13.3792 4.26942 13.3792 5.64725 12.5299 6.04508L8.62741 7.875C8.2232 8.06692 7.78134 8.1665 7.33387 8.1665C6.8864 8.1665 6.44454 8.06692 6.04033 7.875L2.13724 6.04508C1.28791 5.64725 1.28791 4.26942 2.13724 3.87158L6.04033 2.04167Z" stroke="#494949" stroke-width="0.8"/>
<path d="M1.50024 4.95833V8.16666M11.4169 6.70833V9.69791C11.4169 10.2859 11.1235 10.8366 10.609 11.1212C9.75208 11.5967 8.38124 12.25 7.33358 12.25C6.28591 12.25 4.91508 11.5961 4.05816 11.1218C3.54424 10.8366 3.25024 10.2859 3.25024 9.69849V6.70833" stroke="#494949" stroke-width="0.8" stroke-linecap="round"/>
</svg>
