<svg width="16" height="18" viewBox="0 0 16 18" fill="none" xmlns="http://www.w3.org/2000/svg">
<path d="M13.6251 7.09167V6.50417C13.6251 3.28 11.1051 0.666668 8.00005 0.666668C4.89505 0.666668 2.37505 3.28 2.37505 6.50417V7.09167C2.37605 7.79296 2.17592 8.47984 1.79839 9.07084L0.875052 10.5083C0.0325518 11.8208 0.675885 13.605 2.14172 14.02C5.97196 15.1047 10.0281 15.1047 13.8584 14.02C15.3242 13.605 15.9676 11.8208 15.1251 10.5092L14.2017 9.07167C13.8239 8.48076 13.6235 7.79388 13.6242 7.0925L13.6251 7.09167Z" stroke="#9281FF"/>
<path d="M4.25 14.8333C4.79583 16.29 6.26833 17.3333 8 17.3333C9.73167 17.3333 11.2042 16.29 11.75 14.8333M8 4V7.33333" stroke="#9281FF" stroke-linecap="round"/>
</svg>
