<svg width="30" height="30" viewBox="0 0 30 30" fill="none" xmlns="http://www.w3.org/2000/svg">
<path d="M15 30C23.2843 30 30 23.2843 30 15C30 6.71573 23.2843 0 15 0C6.71573 0 0 6.71573 0 15C0 23.2843 6.71573 30 15 30Z" fill="#7CCABF"/>
<path d="M28.486 14.996C28.486 7.55028 22.4501 1.51434 15.0044 1.51434C7.55864 1.51434 1.5227 7.55028 1.5227 14.996C1.5227 22.4417 7.55865 28.4776 15.0044 28.4776C22.4501 28.4776 28.486 22.4417 28.486 14.996Z" fill="#C2B3D7"/>
<mask id="mask0_254_216" style="mask-type:alpha" maskUnits="userSpaceOnUse" x="1" y="1" width="28" height="28">
<path d="M28.486 14.996C28.486 7.55033 22.4501 1.51438 15.0044 1.51438C7.55864 1.51438 1.5227 7.55033 1.5227 14.996C1.5227 22.4418 7.55865 28.4777 15.0044 28.4777C22.4501 28.4777 28.486 22.4418 28.486 14.996Z" fill="#C2B3D7"/>
</mask>
<g mask="url(#mask0_254_216)">
<path d="M15.3347 36.7218C21.4858 36.7218 26.4723 33.6938 26.4723 29.9586C26.4723 26.2234 21.4858 23.1954 15.3347 23.1954C9.18352 23.1954 4.19702 26.2234 4.19702 29.9586C4.19702 33.6938 9.18352 36.7218 15.3347 36.7218Z" fill="#EA6868"/>
</g>
<path d="M11.9268 21.7909L12.6599 24.5538C12.6599 24.5538 14.9167 25.6981 17.2712 24.5538L17.9555 22.7565L11.9268 21.7909Z" fill="#F2AB8F"/>
<path d="M17.6259 23.623L17.9558 22.7565L12.0471 22.1195L12.568 24.2122C14.3188 24.4472 16.0193 24.2026 17.6259 23.623Z" fill="#E88D6D"/>
<path d="M24.5659 17.1337C23.2876 21.5537 17.9651 23.8971 12.6777 22.3679C7.39035 20.8389 3.91767 16.7857 5.19604 12.3657C6.47418 7.94565 11.7969 5.60227 17.0842 7.13125C22.3716 8.66067 25.8441 12.7139 24.5659 17.1337Z" fill="#2C3C52"/>
<path d="M23.9529 17.1642C22.6172 21.7826 17.5546 24.3755 12.6451 22.9557C7.73536 21.5359 4.6057 17.4449 5.94138 12.8266C7.27706 8.20825 12.3398 5.61534 17.2492 7.03514C22.1587 8.45472 25.2884 12.5457 23.9529 17.1642Z" fill="#F2AB8F"/>
<path d="M17.9408 4.07984C12.3707 2.46891 6.62702 5.41073 5.11154 10.6504C5.03963 10.899 4.73453 12.5895 4.68506 12.8353C4.68506 12.8353 5.65528 12.9563 5.9412 12.8266C7.50178 12.1192 8.36107 9.82769 8.36107 9.82769L9.88788 10.1075L10.6526 8.4432L10.9026 10.2936L13.0677 10.6905L13.9466 8.7775L14.234 10.9043L18.2101 11.633L18.8641 10.2097L19.0779 11.7919L20.4084 12.0357L21.5375 9.57817L21.9066 12.3103L23.2083 12.549C23.2083 12.549 23.6252 14.9344 24.2587 15.318C24.5159 15.4736 25.4523 15.1748 25.4523 15.1748C26.4073 8.6341 23.025 5.5502 17.9408 4.07984Z" fill="#2C3C52"/>
<path d="M10.9858 10.9809C10.9858 10.9809 8.40773 11.8572 8.66248 12.7135C8.91724 13.5697 12.2977 12.4548 12.7628 11.8489C13.2276 11.2429 12.3472 10.2801 10.9858 10.9809Z" fill="#2C3C52"/>
<path d="M19.3457 12.0118C19.3457 12.0118 21.7414 13.3058 21.3474 14.1076C20.9534 14.9093 17.806 13.2463 17.4489 12.5712C17.0915 11.896 18.1201 11.0936 19.3457 12.0118Z" fill="#2C3C52"/>
<path d="M13.4988 15.3476C13.234 16.4885 12.0944 17.1987 10.9536 16.9339C9.81273 16.6691 9.1025 15.5296 9.36706 14.3887C9.63185 13.2479 10.7714 12.5376 11.9123 12.8024C13.0533 13.0672 13.7636 14.2067 13.4988 15.3476Z" fill="white"/>
<path d="M12.7574 14.4691C13.0863 15.8464 11.5826 16.7837 10.491 15.8815C10.3009 15.7246 10.1654 15.5069 10.1083 15.2674C9.77943 13.8901 11.2831 12.953 12.3747 13.855C12.5646 14.0119 12.7003 14.2294 12.7574 14.4691Z" fill="#2C3C52"/>
<path d="M12.3011 17.6504C12.1614 18.1333 11.2812 18.4434 10.3813 18.1832C9.48152 17.923 9.05504 17.3052 9.19473 16.8223C9.33442 16.3394 10.0248 16.0445 10.9246 16.3047C11.8245 16.5651 12.4408 17.1675 12.3011 17.6504Z" fill="#E88D6D"/>
<path d="M16.2828 15.6797C16.2717 16.8509 17.2123 17.8091 18.3834 17.8202C19.5546 17.8313 20.5128 16.8907 20.5239 15.7196C20.5348 14.5485 19.5944 13.5902 18.4233 13.5791C17.2522 13.568 16.2937 14.5086 16.2828 15.6797Z" fill="white"/>
<path d="M17.2096 15.0002C16.5661 16.2616 17.8072 17.5262 19.0803 16.906C19.3019 16.7981 19.4848 16.6186 19.5968 16.3991C20.2403 15.1377 18.9992 13.8733 17.7261 14.4933C17.5047 14.6012 17.3216 14.7808 17.2096 15.0002Z" fill="#2C3C52"/>
<path d="M16.905 18.1996C16.9272 18.702 17.7098 19.2102 18.6456 19.169C19.5814 19.1278 20.1413 18.6276 20.119 18.1253C20.0968 17.623 19.4953 17.1743 18.5593 17.2155C17.6235 17.2569 16.883 17.6975 16.905 18.1996Z" fill="#E88D6D"/>
<path d="M6.23622 13.3089C6.23622 13.3089 5.27363 11.9627 3.88957 12.6302C2.50551 13.2978 2.3741 15.8671 3.87192 16.3647C5.36974 16.8622 6.34976 15.3716 6.34976 15.3716L6.23622 13.3089Z" fill="#F2AB8F"/>
<path d="M5.30434 13.753C5.30434 13.753 4.64598 12.9955 3.8841 13.3629C3.12222 13.7304 3.04987 15.1447 3.87429 15.4187C4.69871 15.6926 5.2383 14.8719 5.2383 14.8719L5.30434 13.753Z" fill="#E88D6D"/>
<path d="M23.5989 15.3184C23.5989 15.3184 24.8483 14.2333 26.0393 15.2044C27.2301 16.1755 26.76 18.705 25.1876 18.8403C23.6151 18.9757 23.0088 17.2978 23.0088 17.2978L23.5989 15.3184Z" fill="#F2AB8F"/>
<path d="M24.1634 16.001C24.1634 16.001 24.849 15.4056 25.5024 15.9384C26.1557 16.4712 25.8979 17.8592 25.0349 17.9335C24.1721 18.0079 23.8394 17.0871 23.8394 17.0871L24.1634 16.001Z" fill="#E88D6D"/>
<path d="M15.7837 16.6935C15.7837 16.6935 14.6928 17.3806 13.8193 16.4111" stroke="#2C3C52" stroke-width="1.709" stroke-miterlimit="10" stroke-linecap="round"/>
<path d="M8.45838 22.3941L7.57119 22.6454C7.34847 22.7083 7.17848 22.9151 7.13511 23.1754L6.97537 24.1349C6.94443 24.3204 6.6803 24.3269 6.6402 24.1432L6.44951 23.2678C6.38326 22.9642 6.17122 22.731 5.90578 22.6698L5.07286 22.4778C4.88893 22.4355 4.88261 22.1759 5.06414 22.1245L5.88704 21.8915C6.14899 21.8174 6.34905 21.5742 6.40005 21.268L6.54736 20.3837C6.57831 20.1982 6.84244 20.1917 6.88254 20.3754L7.09022 21.3284C7.14601 21.5847 7.32515 21.7817 7.5494 21.8334L8.45009 22.0408C8.63359 22.0831 8.63991 22.3427 8.45838 22.3941Z" fill="#E8CC31"/>
<path d="M5.36941 18.5263L4.71192 18.7124C4.54695 18.759 4.42099 18.9122 4.38873 19.1051L4.27018 19.8162C4.2473 19.9537 4.05138 19.9585 4.02174 19.8223L3.88031 19.1735C3.83127 18.9486 3.67415 18.7758 3.47736 18.7305L2.86018 18.5882C2.72398 18.5568 2.71919 18.3646 2.85365 18.3265L3.46341 18.1539C3.65758 18.0989 3.80577 17.9187 3.84348 17.6918L3.95266 17.0365C3.97554 16.899 4.17146 16.8942 4.20109 17.0304L4.35496 17.7365C4.39636 17.9266 4.52908 18.0724 4.69514 18.1107L5.36265 18.2646C5.49908 18.2959 5.50387 18.4882 5.36941 18.5263Z" fill="#E8CC31"/>
<path d="M24.7473 21.9118L24.4268 22.0023C24.2808 22.0435 24.1672 22.1864 24.1358 22.3686L24.0857 22.6587C24.0493 22.8694 23.7695 22.8709 23.7307 22.6606L23.6873 22.4242C23.6479 22.21 23.5126 22.043 23.34 21.9964L23.061 21.921C22.8721 21.8698 22.8705 21.581 23.0588 21.5279L23.3371 21.4492C23.5089 21.4006 23.6424 21.2326 23.6795 21.0181L23.7205 20.7808C23.7569 20.5701 24.0367 20.5685 24.0755 20.7788L24.1291 21.07C24.1624 21.2509 24.2766 21.3916 24.4224 21.4311L24.7454 21.5185C24.9341 21.5699 24.9356 21.8587 24.7473 21.9118Z" fill="#E8CC31"/>
<path d="M8.26541 6.54765L7.94483 6.63809C7.79882 6.67928 7.68528 6.82224 7.6539 7.00443L7.60377 7.29449C7.56738 7.50523 7.28756 7.50675 7.24877 7.29645L7.20541 7.06C7.16596 6.84577 7.03062 6.67884 6.85802 6.63221L6.57908 6.5568C6.39013 6.50559 6.38861 6.21705 6.5769 6.16366L6.85519 6.08499C7.02692 6.03639 7.16051 5.86837 7.19756 5.65393L7.23853 5.4166C7.27492 5.20586 7.55474 5.20434 7.59353 5.41464L7.64714 5.70579C7.68049 5.88667 7.79468 6.02745 7.94048 6.0669L8.26344 6.15429C8.45217 6.20572 8.4537 6.49426 8.26541 6.54765Z" fill="#E8CC31"/>
<path d="M27.1551 12.8046L26.7576 12.9168C26.5765 12.968 26.4359 13.145 26.3969 13.3712L26.3348 13.7308C26.2897 13.9921 25.9427 13.9941 25.8948 13.7332L25.841 13.4401C25.7922 13.1744 25.6241 12.9676 25.4103 12.9096L25.0647 12.8161C24.8304 12.7527 24.8285 12.3947 25.0621 12.3289L25.4071 12.2314C25.62 12.1713 25.7856 11.963 25.8316 11.6971L25.8824 11.4029C25.9275 11.1416 26.2744 11.1396 26.3224 11.4005L26.3888 11.7614C26.43 11.9856 26.5719 12.1602 26.7523 12.2092L27.1527 12.3175C27.3867 12.3807 27.3887 12.7388 27.1551 12.8046Z" fill="#E8CC31"/>
</svg>
