<svg width="15" height="14" viewBox="0 0 15 14" fill="none" xmlns="http://www.w3.org/2000/svg">
<path d="M2.271 9.41675V2.91608H1.396V9.41792L2.271 9.41675ZM13.9377 9.41675V2.87817H13.0627V9.41733L13.9377 9.41675ZM12.3662 1.32358C11.7017 1.34692 10.8343 1.41517 10.1664 1.61525L10.4172 2.45408C10.9714 2.28842 11.7437 2.22075 12.3965 2.198L12.3662 1.32358ZM10.1664 1.61525C9.586 1.78908 8.93325 2.12917 8.424 2.42375L8.86266 3.18092C9.3585 2.89392 9.93891 2.59758 10.4172 2.45408L10.1664 1.61525ZM2.96283 2.23067C3.52633 2.26508 4.1645 2.33217 4.63875 2.45758L4.86158 1.61117C4.30158 1.463 3.59225 1.39242 3.0165 1.35683L2.96283 2.23067ZM4.63875 2.45758C5.19991 2.60575 5.89058 2.93008 6.4605 3.23108L6.86883 2.45758C6.28841 2.15017 5.52483 1.78675 4.86216 1.61175L4.63875 2.45758ZM8.82183 12.0925C9.39991 11.7845 10.1162 11.445 10.6949 11.2922L10.4721 10.4463C9.78958 10.626 8.99858 11.0069 8.41058 11.3207L8.82183 12.0925ZM10.6949 11.2922C11.1633 11.1685 11.7927 11.1008 12.3522 11.0658L12.2973 10.1926C11.7257 10.2288 11.0262 10.2993 10.4715 10.4458L10.6949 11.2922ZM6.92308 11.3202C6.33508 11.0069 5.54466 10.626 4.86158 10.4458L4.63875 11.2916C5.21741 11.445 5.93375 11.7845 6.51125 12.0925L6.92308 11.3202ZM4.86158 10.4458C4.30741 10.2999 3.60741 10.2288 3.03575 10.1926L2.9815 11.0658C3.54091 11.1008 4.17033 11.1685 4.63816 11.2922L4.86158 10.4458ZM13.0627 9.41733C13.0627 9.8175 12.7313 10.1657 12.2973 10.1926L12.3522 11.0658C13.212 11.0122 13.9377 10.3127 13.9377 9.41675L13.0627 9.41733ZM13.9377 2.87817C13.9377 2.02417 13.2581 1.2915 12.3662 1.32242L12.3965 2.198C12.7552 2.18517 13.0627 2.47975 13.0627 2.877L13.9377 2.87817ZM1.396 9.41675C1.396 10.3127 2.12166 11.0127 2.9815 11.067L3.03575 10.1926C2.60175 10.1657 2.271 9.81633 2.271 9.41675H1.396ZM8.41058 11.3207C8.18151 11.4423 7.92615 11.5059 7.66683 11.5059C7.40751 11.5059 7.15214 11.4417 6.92308 11.3202L6.51183 12.0925C6.86749 12.2815 7.26408 12.3803 7.66683 12.3803C8.06957 12.3803 8.46617 12.2815 8.82183 12.0925L8.41058 11.3207ZM8.424 2.42258C8.18868 2.55861 7.92285 2.63307 7.65112 2.63909C7.37938 2.6451 7.11052 2.58248 6.86941 2.457L6.4605 3.23108C6.83269 3.42588 7.24811 3.52279 7.6681 3.51392C8.0881 3.50504 8.49903 3.39009 8.86266 3.17975L8.424 2.42258ZM2.271 2.91608C2.271 2.5095 2.593 2.20792 2.96283 2.23067L3.0165 1.35683C2.10766 1.30142 1.396 2.04225 1.396 2.91608H2.271Z" fill="#494949"/>
<path d="M7.66675 3.41484V12.25" stroke="#494949" stroke-width="0.8"/>
<path d="M3.5835 5.24999L5.91683 5.83333M3.5835 7.58333L5.91683 8.16666M11.7502 7.58333L9.41683 8.16666M11.7502 3.20833V5.54749C11.7502 5.70849 11.7502 5.78899 11.6947 5.82166C11.6393 5.85433 11.5641 5.81758 11.4124 5.74583L10.6879 5.40166C10.6366 5.37716 10.6109 5.36549 10.5835 5.36549C10.5561 5.36549 10.5304 5.37716 10.4791 5.40166L9.75458 5.74583C9.60291 5.81758 9.52708 5.85374 9.47225 5.82166C9.41683 5.78841 9.41683 5.70791 9.41683 5.54749V4.05416" stroke="#494949" stroke-width="0.8" stroke-linecap="round"/>
</svg>
