<svg width="14" height="15" viewBox="0 0 14 15" fill="none" xmlns="http://www.w3.org/2000/svg">
<path d="M9.33333 2.93665C10.6021 2.94365 11.2892 3.00023 11.7372 3.44823C12.25 3.96098 12.25 4.78581 12.25 6.43548V9.93548C12.25 11.5857 12.25 12.4106 11.7372 12.9233C11.2251 13.4355 10.3997 13.4355 8.75 13.4355H5.25C3.60033 13.4355 2.77492 13.4355 2.26275 12.9233C1.75 12.41 1.75 11.5857 1.75 9.93548V6.43548C1.75 4.78581 1.75 3.96098 2.26275 3.44823C2.71075 3.00023 3.39792 2.94365 4.66667 2.93665" stroke="#FC715A" stroke-width="0.8"/>
<path d="M5.25 8.41999L6.24983 9.35332L8.75 7.01999" stroke="#FC715A" stroke-width="0.8" stroke-linecap="round" stroke-linejoin="round"/>
<path d="M4.6665 2.64499C4.6665 2.41292 4.75869 2.19036 4.92279 2.02627C5.08688 1.86218 5.30944 1.76999 5.5415 1.76999H8.45817C8.69023 1.76999 8.91279 1.86218 9.07689 2.02627C9.24098 2.19036 9.33317 2.41292 9.33317 2.64499V3.22832C9.33317 3.46039 9.24098 3.68295 9.07689 3.84704C8.91279 4.01114 8.69023 4.10332 8.45817 4.10332H5.5415C5.30944 4.10332 5.08688 4.01114 4.92279 3.84704C4.75869 3.68295 4.6665 3.46039 4.6665 3.22832V2.64499Z" stroke="#FC715A" stroke-width="0.8"/>
</svg>
